<svg viewBox="0 0 64 64" xmlns="http://www.w3.org/2000/svg" xmlns:xlink="http://www.w3.org/1999/xlink" overflow="hidden"><path d="M7 50 21 53.5 21 61 7 61Z" fill="#FFFFFF"/><path d="M8.1 56.1C8.5 57.2 10.1 58 12 58 15.5 58 18.4 56.8 18.4 55.2 18.4 54.8 18.2 54.5 18 54.2 17.6 53.8 17.1 53.5 16.6 53.4L12 52.2C9.8 51.5 8 52.9 8 54.8L8 55C8 55.4 8 55.8 8.1 56.1ZM23.4 60.4 48 22 42.7 19 23.5 52.3C23.1 53 22.1 53 21.6 52.4 20.6 51.1 19.2 50.1 17.7 49.6L13 48.3C8.7 47 4 50 4 54.8L4 55C4 60 8 64 13 64L17.4 63.9C19.9 63.9 22.2 62.6 23.4 60.4Z" fill="#ACBDC5" fill-rule="evenodd" clip-rule="evenodd"/><path d="M52.5 2C53.6 0.1 56.1-0.6 58 0.5 59.9 1.6 60.6 4.1 59.5 6L44.5 24 41 22 52.5 2Z" fill="#597380" fill-rule="evenodd" clip-rule="evenodd"/><path d="M58 0.5C59.9 1.6 60.6 4.1 59.5 6L29.5 58C27.4 61.7 23.4 64 19.1 64L16.1 64 16.1 60 19.1 60C22 60 24.6 58.5 26 56L58 0.5Z" fill="#314A52" fill-rule="evenodd" clip-rule="evenodd"/></svg>