<svg width="296" height="71" viewBox="0 0 296 71" xmlns="http://www.w3.org/2000/svg" xmlns:xlink="http://www.w3.org/1999/xlink" fill="none" overflow="hidden"><path d="M-8.59302e-06 71C13.102 44.3623 83.0496 8.91537 132.922 2.62301 186.809-4.29859 217.873 1.57428 281.27 31.1484 280.425 26.9535 279.368 23.5976 278.945 20.4514 278.311 16.8857 277.677 13.1103 277.889 9.54461 277.889 8.49589 279.791 6.60818 281.059 6.39843 282.327 6.18869 284.44 7.6569 284.862 8.70563 288.666 18.7734 292.047 28.8412 295.64 39.1187 296.696 42.4746 295.428 44.9916 291.836 46.0403 278.1 49.3962 264.364 52.9619 250.417 56.1081 247.247 56.7373 243.443 55.8983 239.217 55.8983 242.598 46.8793 250.206 47.928 255.7 45.6208 261.406 43.1039 267.534 41.6357 274.93 39.1187 257.39 27.373 239.639 20.0319 220.832 15.4175 151.941-1.78164 88.544 12.481 30.0078 50.6547 22.4002 55.6886 15.4266 61.5615 8.03027 66.8051 5.70573 67.8538 3.59247 68.9026-8.59302e-06 71Z" fill="#0D1927"/></svg>