<svg width="64" height="64" viewBox="0 0 64 64" xmlns="http://www.w3.org/2000/svg" xmlns:xlink="http://www.w3.org/1999/xlink" overflow="hidden"><path d="M32 4.984C36.97 4.984 41 9.005 41 13.984 41 18.955 36.97 22.984 32 22.984 27.03 22.984 23 18.955 23 13.984 23 9.006 27.03 4.984 32 4.984ZM47 27.006C55.84 27.006 63 34.176 63 43.006 63 51.846 55.84 59.006 47 59.006L47 59.016 17 59.016 17 59.006C8.16 59.006 1 51.846 1 43.006 1 34.176 8.16 27.006 17 27.006L47 27.006ZM50 43.006C50 38.586 46.41 35.006 41.99 35.006L40.95 35.006C38.75 32.545 35.559 31.006 32 31.006 28.441 31.006 25.25 32.545 23.05 35.006L22.01 35.006C17.59 35.006 14 38.586 14 43.006 14 47.436 17.59 51.016 22.01 51.016L41.99 51.016C46.41 51.016 50 47.436 50 43.006Z" fill="#A0D468"/><path d="M21.04 38.096C20.37 39.596 20 41.256 20 43.006 20 44.756 20.38 46.426 21.05 47.926 18.74 47.475 17 45.446 17 43.006 17 40.576 18.74 38.545 21.04 38.096ZM42.96 38.096C45.26 38.545 47 40.576 47 43.006 47 45.445 45.26 47.475 42.95 47.926 43.62 46.426 44 44.756 44 43.006 44 41.256 43.63 39.596 42.96 38.096Z" fill="#545C66"/><path d="M41.99 35.006C46.41 35.006 50 38.586 50 43.006 50 47.436 46.41 51.016 41.99 51.016L22.01 51.016C17.59 51.016 14 47.436 14 43.006 14 38.586 17.59 35.006 22.01 35.006L23.05 35.006C22.231 35.926 21.55 36.965 21.04 38.096 18.74 38.545 17 40.576 17 43.006 17 45.445 18.74 47.475 21.05 47.926 21.361 47.985 21.68 48.016 22.01 48.016L41.99 48.016C42.32 48.016 42.639 47.985 42.95 47.926 45.26 47.475 47 45.446 47 43.006 47 40.576 45.26 38.545 42.96 38.096 42.45 36.965 41.77 35.926 40.95 35.006L41.99 35.006Z" fill="#656D78"/><path d="M44 43.006C44 44.756 43.62 46.426 42.95 47.926 42.639 47.985 42.32 48.016 41.99 48.016L22.01 48.016C21.68 48.016 21.361 47.985 21.05 47.926 20.38 46.426 20 44.756 20 43.006 20 41.256 20.37 39.596 21.04 38.096 21.55 36.965 22.23 35.926 23.05 35.006 25.25 32.545 28.441 31.006 32 31.006 35.559 31.006 38.75 32.545 40.95 35.006 41.769 35.926 42.45 36.965 42.96 38.096 43.63 39.596 44 41.256 44 43.006Z" fill="#E6E9ED"/><g><path d="M23.03 47.045C22.477 47.045 22.025 46.598 22.025 46.045 22.025 45.492 22.467 45.045 23.019 45.045L23.03 45.045C23.582 45.045 24.03 45.492 24.03 46.045 24.03 46.598 23.582 47.045 23.03 47.045ZM23.03 41.045C22.477 41.045 22.025 40.598 22.025 40.045 22.025 39.492 22.467 39.045 23.019 39.045L23.03 39.045C23.582 39.045 24.03 39.492 24.03 40.045 24.03 40.598 23.582 41.045 23.03 41.045ZM26.03 44.045C25.477 44.045 25.025 43.598 25.025 43.045 25.025 42.492 25.467 42.045 26.019 42.045L26.03 42.045C26.582 42.045 27.03 42.492 27.03 43.045 27.03 43.598 26.582 44.045 26.03 44.045ZM29.03 47.045C28.477 47.045 28.025 46.598 28.025 46.045 28.025 45.492 28.467 45.045 29.019 45.045L29.03 45.045C29.582 45.045 30.03 45.492 30.03 46.045 30.03 46.598 29.582 47.045 29.03 47.045ZM26.03 38.045C25.477 38.045 25.025 37.598 25.025 37.045 25.025 36.492 25.467 36.045 26.019 36.045L26.03 36.045C26.582 36.045 27.03 36.492 27.03 37.045 27.03 37.598 26.582 38.045 26.03 38.045ZM29.03 41.045C28.477 41.045 28.025 40.598 28.025 40.045 28.025 39.492 28.467 39.045 29.019 39.045L29.03 39.045C29.582 39.045 30.03 39.492 30.03 40.045 30.03 40.598 29.582 41.045 29.03 41.045ZM32.03 44.045C31.477 44.045 31.025 43.598 31.025 43.045 31.025 42.492 31.467 42.045 32.019 42.045L32.03 42.045C32.582 42.045 33.03 42.492 33.03 43.045 33.03 43.598 32.582 44.045 32.03 44.045ZM35.03 47.045C34.477 47.045 34.025 46.598 34.025 46.045 34.025 45.492 34.467 45.045 35.019 45.045L35.03 45.045C35.582 45.045 36.03 45.492 36.03 46.045 36.03 46.598 35.582 47.045 35.03 47.045ZM29.03 35.045C28.477 35.045 28.025 34.598 28.025 34.045 28.025 33.492 28.467 33.045 29.019 33.045L29.03 33.045C29.582 33.045 30.03 33.492 30.03 34.045 30.03 34.598 29.582 35.045 29.03 35.045ZM32.03 38.045C31.477 38.045 31.025 37.598 31.025 37.045 31.025 36.492 31.467 36.045 32.019 36.045L32.03 36.045C32.582 36.045 33.03 36.492 33.03 37.045 33.03 37.598 32.582 38.045 32.03 38.045ZM35.03 41.045C34.477 41.045 34.025 40.598 34.025 40.045 34.025 39.492 34.467 39.045 35.019 39.045L35.03 39.045C35.582 39.045 36.03 39.492 36.03 40.045 36.03 40.598 35.582 41.045 35.03 41.045ZM38.03 44.045C37.477 44.045 37.025 43.598 37.025 43.045 37.025 42.492 37.467 42.045 38.019 42.045L38.03 42.045C38.582 42.045 39.03 42.492 39.03 43.045 39.03 43.598 38.582 44.045 38.03 44.045ZM41.03 47.045C40.477 47.045 40.025 46.598 40.025 46.045 40.025 45.492 40.467 45.045 41.019 45.045L41.03 45.045C41.582 45.045 42.03 45.492 42.03 46.045 42.03 46.598 41.582 47.045 41.03 47.045ZM35.03 35.045C34.477 35.045 34.025 34.598 34.025 34.045 34.025 33.492 34.467 33.045 35.019 33.045L35.03 33.045C35.582 33.045 36.03 33.492 36.03 34.045 36.03 34.598 35.582 35.045 35.03 35.045ZM38.03 38.045C37.477 38.045 37.025 37.598 37.025 37.045 37.025 36.492 37.467 36.045 38.019 36.045L38.03 36.045C38.582 36.045 39.03 36.492 39.03 37.045 39.03 37.598 38.582 38.045 38.03 38.045ZM41.03 41.045C40.477 41.045 40.025 40.598 40.025 40.045 40.025 39.492 40.467 39.045 41.019 39.045L41.03 39.045C41.582 39.045 42.03 39.492 42.03 40.045 42.03 40.598 41.582 41.045 41.03 41.045Z" fill="#CCD1D9"/></g><g><path d="M31.002 18.01C30.746 18.01 30.49 17.912 30.295 17.717L28.296 15.719C27.905 15.328 27.905 14.696 28.296 14.305 28.687 13.914 29.319 13.914 29.71 14.305L31.709 16.303C32.1 16.694 32.1 17.326 31.709 17.717 31.514 17.912 31.258 18.01 31.002 18.01Z" fill="#E6E9ED"/></g><g><path d="M31.002 18.01C30.746 18.01 30.49 17.912 30.295 17.717 29.904 17.326 29.904 16.694 30.295 16.303L35.294 11.305C35.685 10.914 36.317 10.914 36.708 11.305 37.099 11.696 37.099 12.328 36.708 12.719L31.709 17.717C31.514 17.912 31.258 18.01 31.002 18.01Z" fill="#E6E9ED"/></g></svg>