<svg viewBox="0 0 79.83 79.83" xmlns="http://www.w3.org/2000/svg" xmlns:xlink="http://www.w3.org/1999/xlink" overflow="hidden"><defs></defs><g><g id="Режим_изоляции"><circle cx="163.98" cy="179.89" r="39.92" fill="#54B157" transform="matrix(0.707107 -0.707107 0.707107 0.707107 -203.24 28.66)"/><circle cx="163.98" cy="179.89" r="39.92" fill="#F6F6F6" transform="matrix(0.707107 -0.707107 0.707107 0.707107 -203.24 28.66)"/><path d="M154.76 141.05C155.13 141.172 155.522 141.216 155.91 141.18 156.85 141.18 157.7 140.82 157.81 140.54 157.82 140.511 157.82 140.479 157.81 140.45 156.783 140.61 155.767 140.81 154.76 141.05Z" fill="#DADBDA" transform="translate(-124.06 -139.98)"/><path d="M158.3 140.38C158.385 140.442 158.475 140.496 158.57 140.54 158.5 140.8 159.17 141.05 160.09 141.03 160.711 141.06 161.325 140.888 161.84 140.54 162.196 140.71 162.585 140.799 162.98 140.8L163.11 140.8C163.497 140.928 163.903 140.986 164.31 140.97 164.76 140.979 165.207 140.905 165.63 140.75 165.804 140.791 165.982 140.812 166.16 140.81 166.446 140.808 166.729 140.761 167 140.67 167.48 140.89 168.003 140.999 168.53 140.99 169.002 141.02 169.475 140.938 169.91 140.75 170.136 140.707 170.355 140.633 170.56 140.53 168.758 140.226 166.937 140.049 165.11 140L165.04 140C164.84 140 164.61 140 164.37 140L163.94 140 163.85 140C163.1 140 162.36 140 161.62 140.07 161.576 140.086 161.54 140.118 161.52 140.16 161.403 140.127 161.282 140.107 161.16 140.1 160.2 140.14 159.24 140.24 158.3 140.38Z" fill="#DADBDA" transform="translate(-124.06 -139.98)"/><path d="M172.73 141.09C172.926 141.105 173.124 141.105 173.32 141.09 172.54 140.9 171.75 140.73 170.95 140.59 171.476 140.94 172.099 141.115 172.73 141.09Z" fill="#DADBDA" transform="translate(-124.06 -139.98)"/><path d="M149 143.16C149.797 143.143 150.546 142.778 151.05 142.16 151.054 142.134 151.054 142.106 151.05 142.08 150.13 142.4 149.22 142.75 148.32 143.13 148.544 143.172 148.773 143.182 149 143.16Z" fill="#DADBDA" transform="translate(-124.06 -139.98)"/><path d="M151.84 142.12C151.66 142.55 152.3 142.91 153.27 142.85 154.24 142.79 155.14 142.34 155.27 141.91 155.4 141.48 154.76 141.24 153.84 141.29L153.74 141.29C153.23 141.43 152.74 141.57 152.22 141.73 152.057 141.819 151.924 141.955 151.84 142.12Z" fill="#DADBDA" transform="translate(-124.06 -139.98)"/><path d="M158 141.09C157.06 141.09 156.2 141.44 156.07 141.87 155.94 142.3 156.64 142.67 157.63 142.63 158.62 142.59 159.48 142.16 159.55 141.74 159.62 141.32 158.93 141.06 158 141.09Z" fill="#DADBDA" transform="translate(-124.06 -139.98)"/><path d="M162.2 141C161.26 141 160.43 141.31 160.36 141.74 160.29 142.17 161.04 142.54 162.04 142.52 163.04 142.5 163.86 142.1 163.88 141.68 163.9 141.26 163.14 141 162.2 141Z" fill="#DADBDA" transform="translate(-124.06 -139.98)"/><path d="M166.42 141C165.48 141 164.7 141.27 164.69 141.69 164.68 142.11 165.47 142.51 166.47 142.52 167.47 142.53 168.25 142.13 168.21 141.71 168.17 141.29 167.36 141 166.42 141Z" fill="#DADBDA" transform="translate(-124.06 -139.98)"/><path d="M169 141.69C169 142.11 169.89 142.53 170.88 142.55 171.87 142.57 172.6 142.2 172.5 141.78 172.4 141.36 171.56 141.05 170.62 141.03 169.68 141.01 169 141.26 169 141.69Z" fill="#DADBDA" transform="translate(-124.06 -139.98)"/><path d="M173.32 141.81C173.43 142.23 174.32 142.68 175.32 142.72 176.32 142.76 176.86 142.47 176.83 142.08 175.91 141.77 174.96 141.49 174 141.24 173.52 141.33 173.26 141.53 173.32 141.81Z" fill="#DADBDA" transform="translate(-124.06 -139.98)"/><path d="M178.11 142.55C178.38 142.702 178.669 142.817 178.97 142.89Z" fill="#DADBDA" transform="translate(-124.06 -139.98)"/><path d="M146.15 145.42C147.015 145.381 147.803 144.911 148.25 144.17 148.38 143.8 148.17 143.53 147.75 143.41 146.75 143.86 145.75 144.35 144.75 144.88 144.88 145.26 145.41 145.5 146.15 145.42Z" fill="#DADBDA" transform="translate(-124.06 -139.98)"/><path d="M151.13 143C150.294 142.984 149.509 143.405 149.06 144.11 148.87 144.68 149.52 145.11 150.52 145.05 151.52 144.99 152.45 144.41 152.59 143.84 152.73 143.27 152.08 142.92 151.13 143Z" fill="#DADBDA" transform="translate(-124.06 -139.98)"/><path d="M155.44 142.72C154.44 142.77 153.56 143.22 153.44 143.78 153.32 144.34 154.01 144.78 155.03 144.78 156.05 144.78 156.96 144.19 157.03 143.63 157.1 143.07 156.41 142.68 155.44 142.72Z" fill="#DADBDA" transform="translate(-124.06 -139.98)"/><path d="M159.83 142.55C158.83 142.55 157.97 143 157.83 143.55 157.69 144.1 158.51 144.55 159.54 144.55 160.57 144.55 161.46 144 161.54 143.44 161.62 142.88 160.81 142.53 159.83 142.55Z" fill="#DADBDA" transform="translate(-124.06 -139.98)"/><path d="M162.39 143.45C162.39 144 163.16 144.5 164.21 144.5 165.26 144.5 166.09 143.98 166.07 143.43 166.05 142.88 165.25 142.43 164.26 142.43 163.27 142.43 162.43 142.89 162.39 143.45Z" fill="#DADBDA" transform="translate(-124.06 -139.98)"/><path d="M166.93 143.43C166.93 143.99 167.8 144.51 168.84 144.52 169.88 144.53 170.67 144.05 170.6 143.52 170.53 142.99 169.68 142.52 168.69 142.52 167.7 142.52 166.91 142.87 166.93 143.43Z" fill="#DADBDA" transform="translate(-124.06 -139.98)"/><path d="M173.1 142.63C172.1 142.63 171.38 142.96 171.45 143.52 171.52 144.08 172.45 144.61 173.45 144.65 174.45 144.69 175.22 144.22 175.1 143.65 174.98 143.08 174.08 142.67 173.1 142.63Z" fill="#DADBDA" transform="translate(-124.06 -139.98)"/><path d="M175.93 143.7C176.05 144.26 176.93 144.82 177.93 144.88 178.93 144.94 179.62 144.49 179.46 143.93 179.3 143.37 178.37 142.93 177.46 142.85 176.55 142.77 175.81 143.14 175.93 143.7Z" fill="#DADBDA" transform="translate(-124.06 -139.98)"/><path d="M180.32 144C180.759 144.742 181.548 145.206 182.41 145.23 182.772 145.278 183.141 145.219 183.47 145.06 182.47 144.5 181.47 143.99 180.41 143.51 180.3 143.648 180.267 143.832 180.32 144Z" fill="#DADBDA" transform="translate(-124.06 -139.98)"/><path d="M141.14 147.16 141.14 147.16C140.44 147.65 139.77 148.16 139.14 148.68 140.013 148.527 140.759 147.96 141.14 147.16Z" fill="#DADBDA" transform="translate(-124.06 -139.98)"/><path d="M144 145.65C143.102 145.721 142.305 146.251 141.89 147.05 141.66 147.74 142.26 148.25 143.24 148.14 144.163 148.06 144.972 147.491 145.36 146.65 145.58 146 145 145.54 144 145.65Z" fill="#DADBDA" transform="translate(-124.06 -139.98)"/><path d="M148.32 145.22C147.418 145.234 146.6 145.756 146.21 146.57 146.02 147.26 146.68 147.78 147.69 147.69 148.618 147.666 149.446 147.104 149.81 146.25 150 145.57 149.29 145.13 148.32 145.22Z" fill="#DADBDA" transform="translate(-124.06 -139.98)"/><path d="M152.75 144.88C151.855 144.862 151.034 145.376 150.66 146.19 150.51 146.88 151.23 147.42 152.28 147.36 153.202 147.372 154.037 146.816 154.38 145.96 154.48 145.28 153.75 144.82 152.75 144.88Z" fill="#DADBDA" transform="translate(-124.06 -139.98)"/><path d="M157.29 144.65C156.29 144.65 155.35 145.23 155.29 145.92 155.23 146.61 155.96 147.16 157.03 147.12 158.1 147.08 159.03 146.45 159.08 145.77 159.13 145.09 158.31 144.61 157.29 144.65Z" fill="#DADBDA" transform="translate(-124.06 -139.98)"/><path d="M161.89 144.52C160.89 144.52 159.97 145.06 159.89 145.74 159.81 146.42 160.66 147.01 161.74 146.99 162.82 146.97 163.74 146.36 163.74 145.68 163.74 145 162.93 144.51 161.89 144.52Z" fill="#DADBDA" transform="translate(-124.06 -139.98)"/><path d="M166.52 144.5C165.52 144.5 164.64 144.99 164.63 145.68 164.62 146.37 165.48 146.96 166.57 146.97 167.66 146.98 168.5 146.38 168.46 145.7 168.42 145.02 167.56 144.5 166.52 144.5Z" fill="#DADBDA" transform="translate(-124.06 -139.98)"/><path d="M169.35 145.71C169.35 146.39 170.29 147.02 171.35 147.05 172.41 147.08 173.23 146.5 173.14 145.82 173.05 145.14 172.14 144.6 171.14 144.57 170.14 144.54 169.31 145 169.35 145.71Z" fill="#DADBDA" transform="translate(-124.06 -139.98)"/><path d="M174 145.85C174.08 146.53 175 147.18 176.07 147.23 177.14 147.28 177.88 146.72 177.75 146.04 177.62 145.36 176.75 144.81 175.68 144.75 174.61 144.69 174 145.17 174 145.85Z" fill="#DADBDA" transform="translate(-124.06 -139.98)"/><path d="M178.65 146.09C179.002 146.946 179.834 147.507 180.76 147.51 181.76 147.59 182.49 147.05 182.31 146.37 181.93 145.554 181.11 145.034 180.21 145.04 179.22 145 178.52 145.41 178.65 146.09Z" fill="#DADBDA" transform="translate(-124.06 -139.98)"/><path d="M183.15 146.44C183.527 147.286 184.346 147.849 185.27 147.9 186.12 147.99 186.7 147.62 186.73 147.09 185.88 146.5 185 145.94 184.11 145.42 183.42 145.48 183 145.88 183.15 146.44Z" fill="#DADBDA" transform="translate(-124.06 -139.98)"/><path d="M135.61 151.81C135.805 151.85 136.005 151.85 136.2 151.81 137.14 151.643 137.922 150.993 138.26 150.1 138.347 149.871 138.347 149.619 138.26 149.39 137.31 150.17 136.44 151 135.61 151.81Z" fill="#DADBDA" transform="translate(-124.06 -139.98)"/><path d="M141.13 148.39C140.178 148.495 139.361 149.113 139 150 138.79 150.79 139.39 151.36 140.37 151.24 141.333 151.121 142.149 150.472 142.48 149.56 142.7 148.78 142.07 148.27 141.13 148.39Z" fill="#DADBDA" transform="translate(-124.06 -139.98)"/><path d="M145.46 147.9C144.504 147.962 143.672 148.575 143.33 149.47 143.15 150.26 143.82 150.86 144.84 150.76 145.817 150.69 146.659 150.045 146.98 149.12 147.13 148.32 146.45 147.8 145.46 147.9Z" fill="#DADBDA" transform="translate(-124.06 -139.98)"/><path d="M150 147.51C149.039 147.523 148.189 148.134 147.87 149.04 147.71 149.83 148.45 150.45 149.51 150.38 150.494 150.357 151.355 149.709 151.65 148.77 151.74 148 151 147.44 150 147.51Z" fill="#DADBDA" transform="translate(-124.06 -139.98)"/><path d="M154.62 147.23C153.661 147.195 152.798 147.805 152.51 148.72 152.39 149.51 153.18 150.15 154.27 150.1 155.254 150.126 156.128 149.478 156.39 148.53 156.47 147.74 155.67 147.17 154.62 147.23Z" fill="#DADBDA" transform="translate(-124.06 -139.98)"/><path d="M157.29 148.5C157.22 149.29 158.06 149.95 159.17 149.92 160.14 149.981 161.013 149.335 161.24 148.39 161.24 147.6 160.43 147.02 159.36 147.05 158.413 146.981 157.549 147.587 157.29 148.5Z" fill="#DADBDA" transform="translate(-124.06 -139.98)"/><path d="M162.16 148.38C162.16 149.17 163 149.85 164.16 149.85 165.32 149.85 166.16 149.15 166.16 148.36 166.16 147.57 165.27 146.96 164.16 146.97 163.05 146.98 162.19 147.58 162.16 148.38Z" fill="#DADBDA" transform="translate(-124.06 -139.98)"/><path d="M167.05 148.36C167.05 149.16 167.97 149.86 169.05 149.87 170.13 149.88 171.05 149.22 170.97 148.42 170.89 147.62 169.97 147.01 168.97 146.99 167.97 146.97 167 147.57 167.05 148.36Z" fill="#DADBDA" transform="translate(-124.06 -139.98)"/><path d="M173.75 147.12C172.69 147.12 171.87 147.65 171.92 148.45 172.163 149.391 173.029 150.036 174 150 175.1 150 175.92 149.39 175.82 148.6 175.554 147.689 174.699 147.077 173.75 147.12Z" fill="#DADBDA" transform="translate(-124.06 -139.98)"/><path d="M176.74 148.64C177.016 149.585 177.885 150.234 178.87 150.23 179.95 150.29 180.71 149.66 180.58 148.87 180.27 147.96 179.411 147.352 178.45 147.36 177.41 147.29 176.64 147.84 176.74 148.64Z" fill="#DADBDA" transform="translate(-124.06 -139.98)"/><path d="M181.45 148.93C181.758 149.863 182.609 150.511 183.59 150.56 184.59 150.64 185.34 150.03 185.17 149.25 184.844 148.344 184.002 147.727 183.04 147.69 182 147.61 181.31 148.14 181.45 148.93Z" fill="#DADBDA" transform="translate(-124.06 -139.98)"/><path d="M186 149.33C186.326 150.251 187.157 150.898 188.13 150.99 189.13 151.09 189.77 150.51 189.57 149.72 189.217 148.837 188.398 148.226 187.45 148.14 186.49 148 185.84 148.54 186 149.33Z" fill="#DADBDA" transform="translate(-124.06 -139.98)"/><path d="M191.89 151.36C191.42 150.9 190.89 150.45 190.44 150.01 190.73 150.631 191.25 151.115 191.89 151.36Z" fill="#DADBDA" transform="translate(-124.06 -139.98)"/><path d="M133.45 155.26C134.408 155.062 135.178 154.35 135.45 153.41 135.585 153.012 135.457 152.573 135.13 152.31 134.27 153.22 133.44 154.16 132.66 155.15 132.902 155.28 133.182 155.319 133.45 155.26Z" fill="#DADBDA" transform="translate(-124.06 -139.98)"/><path d="M138.27 151.52C137.302 151.669 136.503 152.356 136.21 153.29 136.01 154.16 136.62 154.79 137.58 154.67 138.571 154.515 139.38 153.796 139.65 152.83 139.83 152 139.21 151.39 138.27 151.52Z" fill="#DADBDA" transform="translate(-124.06 -139.98)"/><path d="M142.59 151C141.595 151.102 140.759 151.793 140.47 152.75 140.3 153.62 140.97 154.28 141.99 154.17 143.01 154.069 143.861 153.349 144.13 152.36 144.28 151.47 143.58 150.88 142.59 151Z" fill="#DADBDA" transform="translate(-124.06 -139.98)"/><path d="M147.14 150.56C146.126 150.606 145.258 151.301 144.99 152.28 144.84 153.16 145.58 153.84 146.64 153.76 147.675 153.705 148.554 152.984 148.81 151.98 148.93 151.09 148.18 150.47 147.14 150.56Z" fill="#DADBDA" transform="translate(-124.06 -139.98)"/><path d="M151.86 150.23C150.843 150.238 149.958 150.926 149.7 151.91 149.58 152.8 150.38 153.51 151.49 153.45 152.533 153.441 153.43 152.71 153.65 151.69 153.74 150.8 152.93 150.16 151.86 150.23Z" fill="#DADBDA" transform="translate(-124.06 -139.98)"/><path d="M156.71 150C155.693 149.965 154.795 150.658 154.57 151.65 154.49 152.54 155.34 153.27 156.47 153.23 157.511 153.267 158.422 152.535 158.61 151.51 158.66 150.62 157.8 150 156.71 150Z" fill="#DADBDA" transform="translate(-124.06 -139.98)"/><path d="M161.64 149.87C160.635 149.807 159.739 150.501 159.55 151.49 159.618 152.46 160.459 153.191 161.429 153.123 161.469 153.12 161.51 153.116 161.55 153.11 162.575 153.169 163.478 152.443 163.64 151.43 163.533 150.458 162.659 149.757 161.687 149.864 161.671 149.866 161.656 149.868 161.64 149.87Z" fill="#DADBDA" transform="translate(-124.06 -139.98)"/><path d="M166.61 149.85C165.629 149.749 164.745 150.443 164.61 151.42 164.73 152.443 165.644 153.184 166.67 153.09 167.676 153.188 168.571 152.453 168.669 151.447 168.67 151.444 168.67 151.442 168.67 151.44 168.511 150.449 167.609 149.753 166.61 149.85Z" fill="#DADBDA" transform="translate(-124.06 -139.98)"/><path d="M169.61 151.46C169.786 152.485 170.702 153.216 171.74 153.16 172.88 153.16 173.74 152.45 173.68 151.56 173.498 150.551 172.583 149.842 171.56 149.92 170.632 149.779 169.765 150.417 169.624 151.345 169.618 151.383 169.613 151.421 169.61 151.46Z" fill="#DADBDA" transform="translate(-124.06 -139.98)"/><path d="M174.61 151.59C174.824 152.61 175.728 153.338 176.77 153.33 177.89 153.33 178.71 152.66 178.61 151.77 178.375 150.777 177.48 150.082 176.46 150.1 175.37 150.05 174.54 150.7 174.61 151.59Z" fill="#DADBDA" transform="translate(-124.06 -139.98)"/><path d="M179.52 151.82C179.758 152.83 180.643 153.555 181.68 153.59 182.77 153.66 183.54 152.97 183.41 152.08 183.142 151.1 182.266 150.41 181.25 150.38 180.19 150.31 179.42 150.93 179.52 151.82Z" fill="#DADBDA" transform="translate(-124.06 -139.98)"/><path d="M184.29 152.15C184.545 153.15 185.411 153.875 186.44 153.95 187.49 154.04 188.19 153.37 188.03 152.49 187.746 151.524 186.894 150.836 185.89 150.76 184.87 150.66 184.15 151.27 184.29 152.15Z" fill="#DADBDA" transform="translate(-124.06 -139.98)"/><path d="M190.33 151.24C189.33 151.12 188.7 151.7 188.87 152.58 189.144 153.563 189.986 154.283 191 154.4 192 154.52 192.63 153.87 192.44 153 192.149 152.046 191.321 151.355 190.33 151.24Z" fill="#DADBDA" transform="translate(-124.06 -139.98)"/><path d="M193.22 153.11C193.479 154.015 194.205 154.71 195.12 154.93 194.51 154.16 193.86 153.41 193.19 152.69 193.17 152.831 193.18 152.974 193.22 153.11Z" fill="#DADBDA" transform="translate(-124.06 -139.98)"/><path d="M130.84 158.94C131.805 158.694 132.544 157.917 132.74 156.94 132.9 156.443 132.692 155.902 132.24 155.64 131.47 156.64 130.75 157.64 130.07 158.77 130.296 158.921 130.571 158.981 130.84 158.94Z" fill="#DADBDA" transform="translate(-124.06 -139.98)"/><path d="M135.48 155C134.494 155.184 133.709 155.933 133.48 156.91 133.289 157.527 133.635 158.182 134.253 158.373 134.443 158.432 134.645 158.441 134.84 158.4 135.835 158.205 136.62 157.44 136.84 156.45 137.007 155.826 136.637 155.184 136.013 155.017 135.839 154.97 135.657 154.965 135.48 155Z" fill="#DADBDA" transform="translate(-124.06 -139.98)"/><path d="M139.75 154.4C138.731 154.543 137.904 155.298 137.67 156.3 137.519 157.002 137.965 157.693 138.667 157.845 138.839 157.882 139.017 157.884 139.19 157.85 140.231 157.715 141.073 156.937 141.29 155.91 141.428 155.211 140.973 154.533 140.274 154.395 140.101 154.361 139.922 154.362 139.75 154.4Z" fill="#DADBDA" transform="translate(-124.06 -139.98)"/><path d="M144.29 154C143.246 154.092 142.381 154.848 142.15 155.87 142.031 156.645 142.563 157.37 143.338 157.489 143.498 157.513 143.661 157.51 143.82 157.48 144.885 157.393 145.763 156.609 145.97 155.56 146.068 154.788 145.522 154.081 144.75 153.983 144.597 153.963 144.441 153.969 144.29 154Z" fill="#DADBDA" transform="translate(-124.06 -139.98)"/><path d="M149.05 153.59C147.986 153.636 147.088 154.398 146.87 155.44 146.799 156.299 147.437 157.053 148.295 157.124 148.42 157.134 148.546 157.13 148.67 157.11 149.755 157.065 150.663 156.27 150.85 155.2 150.901 154.351 150.254 153.621 149.405 153.57 149.287 153.563 149.167 153.57 149.05 153.59Z" fill="#DADBDA" transform="translate(-124.06 -139.98)"/><path d="M154 153.33C152.933 153.337 152.022 154.101 151.83 155.15 151.799 156.077 152.526 156.854 153.453 156.885 153.549 156.888 153.645 156.883 153.74 156.87 154.831 156.867 155.757 156.069 155.92 154.99 155.925 154.068 155.181 153.316 154.259 153.311 154.172 153.311 154.086 153.317 154 153.33Z" fill="#DADBDA" transform="translate(-124.06 -139.98)"/><path d="M156.84 155C156.862 155.999 157.69 156.792 158.69 156.77 158.74 156.768 158.79 156.765 158.84 156.76 159.935 156.794 160.876 155.988 161.01 154.9 160.949 153.897 160.086 153.133 159.083 153.194 159.058 153.196 159.034 153.198 159.01 153.2 157.933 153.158 156.997 153.934 156.84 155Z" fill="#DADBDA" transform="translate(-124.06 -139.98)"/><path d="M162 154.85C162.074 155.919 163 156.725 164.069 156.652 164.076 156.651 164.083 156.651 164.09 156.65 165.17 156.714 166.105 155.907 166.2 154.83 166.1 153.779 165.173 153.003 164.12 153.09 163.057 153.019 162.125 153.792 162 154.85Z" fill="#DADBDA" transform="translate(-124.06 -139.98)"/><path d="M167.14 154.84C167.23 155.934 168.185 156.751 169.28 156.67 170.308 156.77 171.223 156.018 171.323 154.991 171.326 154.957 171.329 154.924 171.33 154.89 171.186 153.832 170.257 153.059 169.19 153.11 168.162 153.008 167.246 153.759 167.145 154.786 167.143 154.804 167.141 154.822 167.14 154.84Z" fill="#DADBDA" transform="translate(-124.06 -139.98)"/><path d="M174.26 153.23C173.31 153.086 172.423 153.74 172.279 154.69 172.268 154.763 172.262 154.836 172.26 154.91 172.398 155.997 173.335 156.804 174.43 156.78 175.38 156.924 176.267 156.27 176.411 155.32 176.425 155.227 176.431 155.134 176.43 155.04 176.252 153.984 175.331 153.215 174.26 153.23Z" fill="#DADBDA" transform="translate(-124.06 -139.98)"/><path d="M177.38 155.08C177.554 156.16 178.476 156.96 179.57 156.98 180.455 157.108 181.277 156.495 181.406 155.609 181.421 155.503 181.426 155.397 181.42 155.29 181.221 154.238 180.311 153.469 179.24 153.45 178.368 153.306 177.545 153.896 177.401 154.768 177.384 154.871 177.377 154.975 177.38 155.08Z" fill="#DADBDA" transform="translate(-124.06 -139.98)"/><path d="M182.34 155.34C182.536 156.403 183.431 157.195 184.51 157.26 185.321 157.398 186.091 156.852 186.229 156.041 186.252 155.902 186.256 155.76 186.24 155.62 186.022 154.588 185.143 153.827 184.09 153.76 183.294 153.602 182.52 154.119 182.362 154.915 182.334 155.055 182.327 155.198 182.34 155.34Z" fill="#DADBDA" transform="translate(-124.06 -139.98)"/><path d="M187.12 155.7C187.34 156.739 188.204 157.519 189.26 157.63 189.998 157.769 190.709 157.284 190.848 156.546 190.879 156.382 190.88 156.214 190.85 156.05 190.622 155.034 189.774 154.275 188.74 154.16 188.005 154.008 187.285 154.48 187.132 155.216 187.099 155.375 187.095 155.539 187.12 155.7Z" fill="#DADBDA" transform="translate(-124.06 -139.98)"/><path d="M191.69 156.14C191.884 157.175 192.709 157.976 193.75 158.14 194.415 158.279 195.067 157.852 195.205 157.187 195.245 157 195.239 156.805 195.19 156.62 194.967 155.642 194.179 154.892 193.19 154.72 192.545 154.545 191.88 154.926 191.706 155.571 191.655 155.757 191.65 155.952 191.69 156.14Z" fill="#DADBDA" transform="translate(-124.06 -139.98)"/><path d="M197.74 158.59C197.18 157.71 196.6 156.86 195.98 156.03 195.929 156.24 195.929 156.46 195.98 156.67 196.183 157.578 196.853 158.309 197.74 158.59Z" fill="#DADBDA" transform="translate(-124.06 -139.98)"/><path d="M128.39 162.77C129.324 162.507 130.022 161.728 130.18 160.77 130.315 160.268 130.133 159.735 129.72 159.42 129.053 160.5 128.453 161.62 127.92 162.78 128.075 162.814 128.236 162.811 128.39 162.77Z" fill="#DADBDA" transform="translate(-124.06 -139.98)"/><path d="M132.8 158.63C131.819 158.848 131.067 159.639 130.9 160.63 130.74 161.63 131.33 162.33 132.24 162.22 133.233 162.009 133.999 161.219 134.18 160.22 134.32 159.18 133.7 158.5 132.8 158.63Z" fill="#DADBDA" transform="translate(-124.06 -139.98)"/><path d="M137 158.09C135.973 158.257 135.167 159.063 135 160.09 134.826 160.815 135.273 161.544 135.998 161.717 136.166 161.757 136.34 161.765 136.51 161.74 137.536 161.57 138.34 160.766 138.51 159.74 138.684 159.015 138.237 158.286 137.512 158.113 137.344 158.073 137.17 158.065 137 158.09Z" fill="#DADBDA" transform="translate(-124.06 -139.98)"/><path d="M141.47 157.63C140.401 157.751 139.543 158.568 139.37 159.63 139.23 160.435 139.769 161.202 140.574 161.342 140.725 161.368 140.879 161.371 141.03 161.35 142.111 161.242 142.984 160.422 143.16 159.35 143.303 158.545 142.766 157.777 141.961 157.634 141.799 157.606 141.633 157.604 141.47 157.63Z" fill="#DADBDA" transform="translate(-124.06 -139.98)"/><path d="M146.22 157.26C145.12 157.337 144.222 158.169 144.06 159.26 143.959 160.143 144.594 160.941 145.477 161.042 145.604 161.057 145.733 161.056 145.86 161.04 146.968 160.972 147.877 160.138 148.04 159.04 148.142 158.157 147.509 157.358 146.626 157.255 146.491 157.24 146.355 157.241 146.22 157.26Z" fill="#DADBDA" transform="translate(-124.06 -139.98)"/><path d="M151.16 157C150.039 157.04 149.111 157.887 148.97 159 148.909 159.953 149.632 160.776 150.586 160.837 150.687 160.844 150.789 160.841 150.89 160.83 152.017 160.795 152.953 159.948 153.1 158.83 153.163 157.877 152.44 157.053 151.487 156.99 151.378 156.983 151.268 156.987 151.16 157Z" fill="#DADBDA" transform="translate(-124.06 -139.98)"/><path d="M156.26 156.78C155.141 156.777 154.197 157.61 154.06 158.72 154.04 159.742 154.852 160.586 155.874 160.606 155.936 160.607 155.998 160.605 156.06 160.6 157.203 160.605 158.161 159.738 158.27 158.6 158.257 157.578 157.419 156.76 156.397 156.773 156.351 156.774 156.306 156.776 156.26 156.78Z" fill="#DADBDA" transform="translate(-124.06 -139.98)"/><path d="M161.45 156.67C160.33 156.633 159.375 157.474 159.27 158.59 159.318 159.694 160.252 160.549 161.355 160.501 161.36 160.5 161.365 160.5 161.37 160.5 162.519 160.534 163.485 159.647 163.55 158.5 163.46 157.423 162.53 156.612 161.45 156.67Z" fill="#DADBDA" transform="translate(-124.06 -139.98)"/><path d="M166.67 156.65C165.568 156.577 164.615 157.411 164.542 158.513 164.541 158.522 164.54 158.531 164.54 158.54 164.583 159.688 165.549 160.583 166.697 160.54 166.698 160.54 166.699 160.54 166.7 160.54 167.802 160.612 168.754 159.777 168.827 158.675 168.828 158.65 168.829 158.625 168.83 158.6 168.765 157.468 167.803 156.599 166.67 156.65Z" fill="#DADBDA" transform="translate(-124.06 -139.98)"/><path d="M169.82 158.56C169.905 159.702 170.865 160.579 172.01 160.56 173.067 160.643 173.991 159.853 174.074 158.796 174.078 158.754 174.079 158.712 174.08 158.67 173.961 157.556 173.01 156.718 171.89 156.74 170.851 156.64 169.928 157.401 169.828 158.44 169.824 158.48 169.821 158.52 169.82 158.56Z" fill="#DADBDA" transform="translate(-124.06 -139.98)"/><path d="M175.05 158.67C175.176 159.799 176.124 160.657 177.26 160.67 178.242 160.787 179.132 160.086 179.249 159.104 179.261 159.007 179.265 158.908 179.26 158.81 179.12 157.7 178.179 156.866 177.06 156.86 176.085 156.733 175.192 157.42 175.064 158.394 175.053 158.486 175.048 158.578 175.05 158.67Z" fill="#DADBDA" transform="translate(-124.06 -139.98)"/><path d="M180.18 158.87C180.337 159.979 181.261 160.819 182.38 160.87 183.29 160.984 184.12 160.34 184.234 159.43 184.249 159.311 184.251 159.19 184.24 159.07 184.092 157.964 183.174 157.123 182.06 157.07 181.145 156.951 180.307 157.595 180.188 158.51 180.172 158.629 180.17 158.75 180.18 158.87Z" fill="#DADBDA" transform="translate(-124.06 -139.98)"/><path d="M185.16 159.14C185.328 160.224 186.217 161.051 187.31 161.14 188.159 161.253 188.938 160.657 189.051 159.808 189.07 159.67 189.069 159.529 189.05 159.39 188.877 158.313 187.996 157.49 186.91 157.39 186.069 157.265 185.285 157.845 185.16 158.686 185.138 158.837 185.138 158.99 185.16 159.14Z" fill="#DADBDA" transform="translate(-124.06 -139.98)"/><path d="M189.92 159.49C190.101 160.544 190.949 161.356 192.01 161.49 192.787 161.6 193.505 161.059 193.615 160.283 193.637 160.122 193.632 159.959 193.6 159.8 193.429 158.752 192.592 157.94 191.54 157.8 190.773 157.666 190.042 158.179 189.909 158.946 189.877 159.127 189.881 159.311 189.92 159.49Z" fill="#DADBDA" transform="translate(-124.06 -139.98)"/><path d="M194.42 159.93C194.596 160.953 195.397 161.754 196.42 161.93 197.125 162.033 197.78 161.545 197.883 160.84 197.909 160.663 197.898 160.482 197.85 160.31 197.674 159.287 196.873 158.486 195.85 158.31 195.152 158.199 194.496 158.676 194.385 159.374 194.356 159.559 194.368 159.749 194.42 159.93Z" fill="#DADBDA" transform="translate(-124.06 -139.98)"/><path d="M198.6 160.45C198.727 161.18 199.155 161.822 199.78 162.22 199.4 161.46 199 160.72 198.58 159.99 198.567 160.144 198.574 160.298 198.6 160.45Z" fill="#DADBDA" transform="translate(-124.06 -139.98)"/><path d="M127.8 164.64C127.868 164.236 127.79 163.821 127.58 163.47 127.11 164.47 126.69 165.57 126.3 166.66 127.127 166.306 127.7 165.534 127.8 164.64Z" fill="#DADBDA" transform="translate(-124.06 -139.98)"/><path d="M130.27 162.48C129.3 162.722 128.585 163.545 128.48 164.54 128.35 165.54 128.92 166.31 129.8 166.21 130.79 165.979 131.522 165.142 131.62 164.13 131.75 163.08 131.13 162.36 130.27 162.48Z" fill="#DADBDA" transform="translate(-124.06 -139.98)"/><path d="M134.32 162C133.292 162.191 132.509 163.031 132.39 164.07 132.205 164.826 132.668 165.59 133.424 165.775 133.573 165.811 133.727 165.823 133.88 165.81 134.942 165.637 135.759 164.779 135.88 163.71 136.052 162.951 135.577 162.195 134.817 162.023 134.654 161.986 134.486 161.978 134.32 162Z" fill="#DADBDA" transform="translate(-124.06 -139.98)"/><path d="M138.72 161.53C137.659 161.691 136.839 162.544 136.72 163.61 136.568 164.447 137.122 165.249 137.959 165.401 138.095 165.426 138.233 165.432 138.37 165.42 139.466 165.282 140.323 164.408 140.44 163.31 140.58 162.471 140.013 161.678 139.174 161.538 139.024 161.513 138.871 161.51 138.72 161.53Z" fill="#DADBDA" transform="translate(-124.06 -139.98)"/><path d="M143.42 161.17C142.305 161.268 141.414 162.138 141.29 163.25 141.176 164.165 141.826 165 142.741 165.113 142.857 165.128 142.974 165.13 143.09 165.12 144.222 165.02 145.124 164.131 145.24 163 145.339 162.089 144.68 161.27 143.768 161.171 143.653 161.158 143.536 161.158 143.42 161.17Z" fill="#DADBDA" transform="translate(-124.06 -139.98)"/><path d="M148.35 160.88C147.212 160.947 146.29 161.827 146.17 162.96 146.095 163.946 146.834 164.805 147.82 164.88 147.91 164.887 148 164.887 148.09 164.88 149.247 164.825 150.186 163.924 150.29 162.77 150.355 161.789 149.612 160.941 148.631 160.876 148.538 160.87 148.444 160.871 148.35 160.88Z" fill="#DADBDA" transform="translate(-124.06 -139.98)"/><path d="M153.47 160.68C152.336 160.698 151.39 161.553 151.26 162.68 151.197 163.722 151.991 164.617 153.033 164.68 153.109 164.685 153.184 164.685 153.26 164.68 154.427 164.658 155.388 163.754 155.48 162.59 155.493 161.546 154.658 160.689 153.614 160.676 153.566 160.676 153.518 160.677 153.47 160.68Z" fill="#DADBDA" transform="translate(-124.06 -139.98)"/><path d="M156.5 162.58C156.498 163.685 157.392 164.581 158.497 164.583 158.535 164.583 158.572 164.582 158.61 164.58 159.787 164.592 160.766 163.676 160.83 162.5 160.832 161.395 159.938 160.499 158.833 160.497 158.795 160.497 158.758 160.498 158.72 160.5 157.545 160.493 156.569 161.407 156.5 162.58Z" fill="#DADBDA" transform="translate(-124.06 -139.98)"/><path d="M161.84 162.5C161.861 163.654 162.814 164.572 163.968 164.551 163.982 164.551 163.996 164.551 164.01 164.55 165.182 164.578 166.161 163.662 166.21 162.49 166.161 161.337 165.187 160.441 164.034 160.49 164.033 160.49 164.031 160.49 164.03 160.49 162.874 160.45 161.899 161.345 161.84 162.5Z" fill="#DADBDA" transform="translate(-124.06 -139.98)"/><path d="M167.21 162.49C167.269 163.663 168.246 164.578 169.42 164.56 170.521 164.643 171.482 163.817 171.564 162.716 171.568 162.664 171.57 162.612 171.57 162.56 171.475 161.415 170.509 160.54 169.36 160.56 168.235 160.503 167.275 161.365 167.21 162.49Z" fill="#DADBDA" transform="translate(-124.06 -139.98)"/><path d="M174.65 160.6C173.581 160.522 172.652 161.325 172.574 162.394 172.569 162.462 172.568 162.531 172.57 162.6 172.649 163.771 173.617 164.682 174.79 164.69 175.894 164.734 176.824 163.875 176.868 162.772 176.869 162.744 176.87 162.717 176.87 162.69 176.787 161.522 175.821 160.613 174.65 160.6Z" fill="#DADBDA" transform="translate(-124.06 -139.98)"/><path d="M177.85 162.68C177.942 163.842 178.895 164.748 180.06 164.78 181.072 164.87 181.966 164.123 182.056 163.11 182.064 163.02 182.065 162.93 182.06 162.84 181.95 161.696 181.009 160.81 179.86 160.77 178.854 160.669 177.958 161.403 177.857 162.409 177.848 162.499 177.846 162.59 177.85 162.68Z" fill="#DADBDA" transform="translate(-124.06 -139.98)"/><path d="M183 162.88C183.111 164.023 184.034 164.917 185.18 164.99 186.132 165.067 186.967 164.357 187.043 163.405 187.052 163.3 187.051 163.195 187.04 163.09 186.917 161.968 186.006 161.096 184.88 161.02 183.935 160.928 183.094 161.62 183.002 162.566 182.992 162.67 182.991 162.775 183 162.88Z" fill="#DADBDA" transform="translate(-124.06 -139.98)"/><path d="M187.94 163.15C188.058 164.267 188.943 165.148 190.06 165.26 190.946 165.33 191.722 164.669 191.792 163.782 191.802 163.661 191.798 163.54 191.78 163.42 191.66 162.325 190.795 161.46 189.7 161.34 188.822 161.243 188.031 161.877 187.934 162.755 187.92 162.887 187.922 163.019 187.94 163.15Z" fill="#DADBDA" transform="translate(-124.06 -139.98)"/><path d="M192.65 163.49C192.761 164.564 193.583 165.427 194.65 165.59 195.465 165.657 196.179 165.051 196.247 164.237 196.259 164.094 196.25 163.95 196.22 163.81 196.093 162.749 195.276 161.903 194.22 161.74 193.411 161.669 192.698 162.268 192.628 163.076 192.615 163.215 192.623 163.354 192.65 163.49Z" fill="#DADBDA" transform="translate(-124.06 -139.98)"/><path d="M197 163.9C197.11 164.936 197.879 165.782 198.9 165.99 199.82 166.08 200.44 165.31 200.31 164.28 200.199 163.264 199.449 162.434 198.45 162.22 197.58 162.1 196.92 162.84 197 163.9Z" fill="#DADBDA" transform="translate(-124.06 -139.98)"/><path d="M127.91 166.44C126.97 166.706 126.305 167.544 126.26 168.52 126.15 169.52 126.71 170.34 127.54 170.25 128.507 170.007 129.199 169.156 129.24 168.16 129.34 167.1 128.73 166.33 127.91 166.44Z" fill="#DADBDA" transform="translate(-124.06 -139.98)"/><path d="M131.79 166C130.776 166.203 130.027 167.067 129.97 168.1 129.87 169.16 130.51 169.98 131.44 169.91 132.475 169.718 133.244 168.841 133.3 167.79 133.39 166.68 132.71 165.89 131.79 166Z" fill="#DADBDA" transform="translate(-124.06 -139.98)"/><path d="M136.06 165.59C134.977 165.737 134.144 166.621 134.06 167.71 133.905 168.58 134.484 169.411 135.354 169.566 135.468 169.587 135.584 169.595 135.7 169.59 136.792 169.445 137.629 168.549 137.7 167.45 137.844 166.578 137.254 165.755 136.383 165.61 136.276 165.593 136.168 165.586 136.06 165.59Z" fill="#DADBDA" transform="translate(-124.06 -139.98)"/><path d="M140.67 165.26C139.56 165.382 138.695 166.277 138.61 167.39 138.454 168.327 139.088 169.213 140.025 169.369 140.145 169.389 140.268 169.396 140.39 169.39 141.526 169.284 142.416 168.368 142.49 167.23 142.63 166.29 141.982 165.415 141.043 165.275 140.92 165.256 140.795 165.251 140.67 165.26Z" fill="#DADBDA" transform="translate(-124.06 -139.98)"/><path d="M145.56 165C144.41 165.077 143.492 165.99 143.41 167.14 143.32 168.152 144.069 169.045 145.081 169.135 145.164 169.142 145.247 169.144 145.33 169.14 146.488 169.073 147.417 168.157 147.5 167 147.602 166 146.874 165.107 145.874 165.005 145.77 164.994 145.665 164.993 145.56 165Z" fill="#DADBDA" transform="translate(-124.06 -139.98)"/><path d="M150.67 164.78C149.493 164.824 148.541 165.754 148.47 166.93 148.431 167.995 149.262 168.891 150.327 168.93 150.375 168.932 150.422 168.932 150.47 168.93 151.658 168.89 152.618 167.947 152.68 166.76 152.703 165.689 151.853 164.802 150.782 164.779 150.744 164.778 150.707 164.779 150.67 164.78Z" fill="#DADBDA" transform="translate(-124.06 -139.98)"/><path d="M155.94 164.64C154.749 164.654 153.773 165.59 153.71 166.78 153.664 167.884 154.522 168.815 155.625 168.861 155.69 168.864 155.755 168.864 155.82 168.86 157.022 168.851 158.007 167.901 158.06 166.7 158.095 165.596 157.229 164.673 156.125 164.637 156.063 164.635 156.001 164.636 155.94 164.64Z" fill="#DADBDA" transform="translate(-124.06 -139.98)"/><path d="M161.31 164.56C160.116 164.548 159.129 165.487 159.08 166.68 159.074 167.845 160.014 168.795 161.179 168.801 161.206 168.801 161.233 168.801 161.26 168.8 162.463 168.806 163.452 167.853 163.49 166.65 163.48 165.485 162.527 164.549 161.361 164.559 161.344 164.559 161.327 164.559 161.31 164.56Z" fill="#DADBDA" transform="translate(-124.06 -139.98)"/><path d="M166.72 164.55C165.533 164.517 164.544 165.452 164.51 166.639 164.51 166.642 164.51 166.646 164.51 166.65 164.537 167.856 165.534 168.812 166.74 168.79 167.927 168.818 168.912 167.878 168.94 166.691 168.94 166.68 168.94 166.67 168.94 166.66 168.902 165.468 167.913 164.528 166.72 164.55Z" fill="#DADBDA" transform="translate(-124.06 -139.98)"/><path d="M170 166.67C170.048 167.873 171.036 168.826 172.24 168.83 173.388 168.869 174.35 167.97 174.389 166.821 174.39 166.788 174.391 166.754 174.39 166.72 174.327 165.532 173.35 164.599 172.16 164.59 171.012 164.546 170.046 165.441 170.002 166.588 170 166.616 170 166.643 170 166.67Z" fill="#DADBDA" transform="translate(-124.06 -139.98)"/><path d="M175.36 166.74C175.418 167.937 176.392 168.885 177.59 168.91 178.694 168.949 179.621 168.086 179.66 166.983 179.662 166.935 179.662 166.887 179.66 166.84 179.588 165.659 178.623 164.729 177.44 164.7 176.336 164.656 175.406 165.514 175.361 166.618 175.36 166.659 175.359 166.699 175.36 166.74Z" fill="#DADBDA" transform="translate(-124.06 -139.98)"/><path d="M180.64 166.87C180.71 168.05 181.66 168.986 182.84 169.04 183.876 169.109 184.771 168.324 184.84 167.288 184.845 167.206 184.845 167.123 184.84 167.04 184.752 165.881 183.82 164.967 182.66 164.9 181.619 164.827 180.716 165.612 180.643 166.653 180.638 166.726 180.637 166.798 180.64 166.87Z" fill="#DADBDA" transform="translate(-124.06 -139.98)"/><path d="M185.76 167.06C185.84 168.212 186.749 169.134 187.9 169.23 188.888 169.276 189.725 168.512 189.771 167.524 189.775 167.426 189.772 167.328 189.76 167.23 189.675 166.092 188.777 165.185 187.64 165.09 186.665 165.023 185.82 165.759 185.752 166.734 185.745 166.843 185.747 166.952 185.76 167.06Z" fill="#DADBDA" transform="translate(-124.06 -139.98)"/><path d="M190.65 167.31C190.724 168.409 191.559 169.306 192.65 169.46 193.566 169.504 194.344 168.797 194.387 167.881 194.393 167.77 194.387 167.66 194.37 167.55 194.29 166.457 193.456 165.568 192.37 165.42 191.454 165.378 190.678 166.086 190.635 167.002 190.631 167.105 190.636 167.208 190.65 167.31Z" fill="#DADBDA" transform="translate(-124.06 -139.98)"/><path d="M195.26 167.61C195.322 168.686 196.126 169.572 197.19 169.74 198.04 169.763 198.748 169.092 198.771 168.242 198.774 168.124 198.764 168.006 198.74 167.89 198.673 166.835 197.892 165.963 196.85 165.78 196.006 165.73 195.282 166.374 195.232 167.217 195.225 167.349 195.234 167.481 195.26 167.61Z" fill="#DADBDA" transform="translate(-124.06 -139.98)"/><path d="M199.51 168C199.563 169.026 200.296 169.89 201.3 170.11 201.804 170.159 202.282 169.881 202.49 169.42 202.22 168.42 201.91 167.42 201.57 166.47 201.376 166.35 201.157 166.275 200.93 166.25 200.06 166.1 199.41 166.88 199.51 168Z" fill="#DADBDA" transform="translate(-124.06 -139.98)"/><path d="M125.49 174.3C126.42 174.045 127.061 173.195 127.05 172.23 127.12 171.15 126.53 170.36 125.76 170.45 125.525 170.484 125.304 170.58 125.12 170.73 124.88 171.73 124.68 172.73 124.52 173.73 124.696 174.101 125.08 174.327 125.49 174.3Z" fill="#DADBDA" transform="translate(-124.06 -139.98)"/><path d="M129.43 170.07C128.445 170.29 127.744 171.161 127.74 172.17 127.66 173.25 128.29 174.09 129.17 174.04 130.18 173.844 130.91 172.959 130.91 171.93 131 170.82 130.31 170 129.43 170.07Z" fill="#DADBDA" transform="translate(-124.06 -139.98)"/><path d="M133.54 169.74C132.491 169.913 131.714 170.808 131.69 171.87 131.535 172.779 132.147 173.642 133.056 173.797 133.137 173.81 133.218 173.818 133.3 173.82 134.371 173.66 135.173 172.753 135.2 171.67 135.344 170.759 134.721 169.904 133.81 169.76 133.721 169.746 133.63 169.739 133.54 169.74Z" fill="#DADBDA" transform="translate(-124.06 -139.98)"/><path d="M138 169.46C136.889 169.584 136.038 170.503 136 171.62 135.873 172.589 136.556 173.478 137.525 173.605 137.606 173.616 137.688 173.621 137.77 173.62 138.891 173.509 139.75 172.576 139.77 171.45 139.892 170.48 139.204 169.595 138.234 169.474 138.156 169.464 138.078 169.459 138 169.46Z" fill="#DADBDA" transform="translate(-124.06 -139.98)"/><path d="M140.74 171.41C140.64 172.444 141.397 173.362 142.431 173.462 142.504 173.469 142.577 173.472 142.65 173.47 143.816 173.389 144.732 172.438 144.77 171.27 144.831 170.228 144.036 169.334 142.994 169.273 142.939 169.269 142.885 169.268 142.83 169.27 141.695 169.359 140.802 170.274 140.74 171.41Z" fill="#DADBDA" transform="translate(-124.06 -139.98)"/><path d="M147.89 169C146.706 169.061 145.765 170.016 145.72 171.2 145.665 172.303 146.514 173.242 147.617 173.298 147.652 173.299 147.686 173.3 147.72 173.3 148.917 173.253 149.874 172.288 149.91 171.09 149.96 169.987 149.106 169.052 148.002 169.002 147.965 169 147.927 169 147.89 169Z" fill="#DADBDA" transform="translate(-124.06 -139.98)"/><path d="M153.14 168.91C151.937 168.946 150.967 169.907 150.92 171.11 150.881 172.253 151.776 173.21 152.918 173.249 152.959 173.251 152.999 173.251 153.04 173.25 154.257 173.224 155.238 172.247 155.27 171.03 155.298 169.887 154.394 168.938 153.251 168.91 153.214 168.909 153.177 168.909 153.14 168.91Z" fill="#DADBDA" transform="translate(-124.06 -139.98)"/><path d="M156.29 171C156.273 172.182 157.218 173.153 158.399 173.17 158.423 173.171 158.446 173.17 158.47 173.17 159.695 173.165 160.693 172.185 160.72 170.96 160.732 169.784 159.787 168.821 158.611 168.809 158.584 168.809 158.557 168.809 158.53 168.81 157.314 168.815 156.322 169.785 156.29 171Z" fill="#DADBDA" transform="translate(-124.06 -139.98)"/><path d="M161.75 171C161.755 172.221 162.749 173.206 163.97 173.2 163.973 173.2 163.977 173.2 163.98 173.2 165.209 173.206 166.214 172.219 166.23 170.99 166.23 169.753 165.227 168.75 163.99 168.75 162.753 168.75 161.75 169.753 161.75 170.99Z" fill="#DADBDA" transform="translate(-124.06 -139.98)"/><path d="M167.26 171C167.276 172.231 168.279 173.22 169.51 173.22 170.714 173.237 171.703 172.274 171.72 171.07 171.72 171.057 171.72 171.043 171.72 171.03 171.687 169.811 170.69 168.84 169.47 168.84 168.277 168.812 167.288 169.757 167.261 170.949 167.26 170.966 167.26 170.983 167.26 171Z" fill="#DADBDA" transform="translate(-124.06 -139.98)"/><path d="M174.91 168.86C173.745 168.827 172.774 169.744 172.741 170.909 172.74 170.939 172.74 170.97 172.74 171 172.777 172.222 173.768 173.199 174.99 173.22 176.155 173.242 177.118 172.316 177.14 171.151 177.141 171.121 177.141 171.09 177.14 171.06 177.103 169.849 176.121 168.881 174.91 168.86Z" fill="#DADBDA" transform="translate(-124.06 -139.98)"/><path d="M178.15 171.08C178.186 172.285 179.155 173.254 180.36 173.29 181.464 173.331 182.392 172.469 182.432 171.365 182.435 171.3 182.434 171.235 182.43 171.17 182.384 169.975 181.425 169.016 180.23 168.97 179.126 168.924 178.195 169.782 178.149 170.885 178.146 170.95 178.146 171.015 178.15 171.08Z" fill="#DADBDA" transform="translate(-124.06 -139.98)"/><path d="M183.41 171.19C183.444 172.373 184.378 173.333 185.56 173.4 186.625 173.442 187.523 172.613 187.564 171.547 187.567 171.472 187.566 171.396 187.56 171.32 187.516 170.152 186.596 169.206 185.43 169.13 184.365 169.078 183.46 169.899 183.408 170.963 183.404 171.039 183.405 171.115 183.41 171.19Z" fill="#DADBDA" transform="translate(-124.06 -139.98)"/><path d="M188.46 171.35C188.492 172.501 189.383 173.444 190.53 173.54 191.546 173.549 192.378 172.733 192.387 171.717 192.387 171.658 192.385 171.599 192.38 171.54 192.343 170.421 191.492 169.498 190.38 169.37 189.371 169.317 188.509 170.092 188.456 171.101 188.452 171.184 188.453 171.267 188.46 171.35Z" fill="#DADBDA" transform="translate(-124.06 -139.98)"/><path d="M193.26 171.55C193.284 172.674 194.142 173.604 195.26 173.72 196.21 173.716 196.977 172.943 196.973 171.993 196.973 171.902 196.965 171.81 196.95 171.72 196.917 170.632 196.107 169.725 195.03 169.57 194.081 169.531 193.28 170.269 193.241 171.219 193.237 171.329 193.243 171.44 193.26 171.55Z" fill="#DADBDA" transform="translate(-124.06 -139.98)"/><path d="M197.72 171.79C197.731 172.851 198.503 173.75 199.55 173.92 200.433 173.892 201.126 173.153 201.098 172.269 201.095 172.186 201.086 172.102 201.07 172.02 201.059 170.979 200.313 170.091 199.29 169.9 198.37 169.82 197.66 170.67 197.72 171.79Z" fill="#DADBDA" transform="translate(-124.06 -139.98)"/><path d="M201.81 172.07C201.795 173.07 202.484 173.942 203.46 174.16L203.46 174.16C203.276 172.861 203.025 171.573 202.71 170.3 202.049 170.623 201.682 171.345 201.81 172.07Z" fill="#DADBDA" transform="translate(-124.06 -139.98)"/><path d="M124.41 174.59C124.25 175.76 124.15 176.95 124.1 178.15 124.728 177.731 125.103 177.025 125.1 176.27 125.17 175.629 124.91 174.997 124.41 174.59Z" fill="#DADBDA" transform="translate(-124.06 -139.98)"/><path d="M127.27 174.16C126.317 174.378 125.661 175.254 125.72 176.23 125.72 177.31 126.28 178.17 127.11 178.14 128.083 177.943 128.765 177.062 128.71 176.07 128.76 175 128.1 174.1 127.27 174.16Z" fill="#DADBDA" transform="translate(-124.06 -139.98)"/><path d="M131.18 173.92C130.157 174.098 129.42 175.002 129.45 176.04 129.298 176.983 129.94 177.871 130.883 178.023 130.932 178.031 130.981 178.036 131.03 178.04 132.076 177.888 132.841 176.976 132.81 175.92 132.96 174.976 132.317 174.09 131.373 173.94 131.309 173.93 131.245 173.923 131.18 173.92Z" fill="#DADBDA" transform="translate(-124.06 -139.98)"/><path d="M135.51 173.72C134.425 173.852 133.612 174.777 133.62 175.87 133.531 176.882 134.279 177.775 135.291 177.864 135.321 177.867 135.35 177.869 135.38 177.87 136.483 177.756 137.316 176.819 137.3 175.71 137.394 174.709 136.659 173.822 135.658 173.728 135.609 173.723 135.559 173.721 135.51 173.72Z" fill="#DADBDA" transform="translate(-124.06 -139.98)"/><path d="M140.2 173.54C139.068 173.643 138.2 174.593 138.2 175.73 138.111 176.798 138.905 177.735 139.973 177.824 140.015 177.827 140.058 177.829 140.1 177.83 141.236 177.726 142.105 176.771 142.1 175.63 142.183 174.562 141.384 173.629 140.316 173.546 140.277 173.543 140.239 173.541 140.2 173.54Z" fill="#DADBDA" transform="translate(-124.06 -139.98)"/><path d="M145.17 173.4C143.989 173.458 143.059 174.428 143.05 175.61 142.973 176.712 143.803 177.668 144.905 177.745 144.953 177.748 145.002 177.75 145.05 177.75 146.24 177.697 147.181 176.721 147.19 175.53 147.262 174.428 146.427 173.476 145.324 173.404 145.273 173.401 145.221 173.399 145.17 173.4Z" fill="#DADBDA" transform="translate(-124.06 -139.98)"/><path d="M150.37 173.29C149.163 173.332 148.201 174.312 148.18 175.52 148.141 176.685 149.054 177.66 150.219 177.699 150.246 177.7 150.273 177.7 150.3 177.7 151.515 177.663 152.484 176.675 152.5 175.46 152.539 174.301 151.631 173.33 150.471 173.291 150.438 173.29 150.404 173.289 150.37 173.29Z" fill="#DADBDA" transform="translate(-124.06 -139.98)"/><path d="M155.74 173.22C154.515 173.236 153.526 174.225 153.51 175.45 153.488 176.648 154.441 177.638 155.64 177.66 155.656 177.66 155.673 177.66 155.69 177.66 156.927 177.655 157.929 176.656 157.94 175.42 157.962 174.227 157.014 173.242 155.821 173.22 155.794 173.219 155.767 173.219 155.74 173.22Z" fill="#DADBDA" transform="translate(-124.06 -139.98)"/><path d="M161.22 173.18C159.987 173.185 158.986 174.177 158.97 175.41 158.964 176.636 159.954 177.634 161.18 177.64 161.187 177.64 161.193 177.64 161.2 177.64 162.444 177.64 163.455 176.634 163.46 175.39 163.46 174.169 162.471 173.18 161.25 173.18 161.24 173.18 161.23 173.18 161.22 173.18Z" fill="#DADBDA" transform="translate(-124.06 -139.98)"/><path d="M166.75 173.17C165.513 173.176 164.515 174.183 164.52 175.42 164.526 176.657 165.533 177.655 166.77 177.65 168.007 177.644 169.006 176.637 169 175.4 169 174.168 168.002 173.17 166.77 173.17 166.763 173.17 166.757 173.17 166.75 173.17Z" fill="#DADBDA" transform="translate(-124.06 -139.98)"/><path d="M170 175.4C170.005 176.64 171.01 177.645 172.25 177.65 173.459 177.661 174.449 176.69 174.46 175.48 174.46 175.464 174.46 175.447 174.46 175.43 174.449 174.197 173.453 173.201 172.22 173.19 171.011 173.173 170.017 174.14 170 175.35 170 175.366 170 175.383 170 175.4Z" fill="#DADBDA" transform="translate(-124.06 -139.98)"/><path d="M175.53 175.44C175.546 176.663 176.527 177.653 177.75 177.68 178.932 177.686 179.895 176.733 179.901 175.551 179.901 175.527 179.901 175.504 179.9 175.48 179.884 174.263 178.907 173.277 177.69 173.25 176.514 173.233 175.546 174.173 175.529 175.349 175.529 175.379 175.529 175.41 175.53 175.44Z" fill="#DADBDA" transform="translate(-124.06 -139.98)"/><path d="M180.9 175.49C180.91 176.694 181.866 177.677 183.07 177.72 184.208 177.727 185.136 176.81 185.142 175.672 185.143 175.635 185.142 175.597 185.14 175.56 185.12 174.369 184.18 173.398 182.99 173.34 181.847 173.328 180.91 174.245 180.899 175.388 180.898 175.422 180.899 175.456 180.9 175.49Z" fill="#DADBDA" transform="translate(-124.06 -139.98)"/><path d="M186.1 175.58C186.103 176.753 187.019 177.721 188.19 177.79 189.295 177.792 190.192 176.899 190.194 175.794 190.194 175.749 190.193 175.705 190.19 175.66 190.182 174.5 189.278 173.543 188.12 173.47 187.016 173.457 186.11 174.342 186.097 175.447 186.097 175.491 186.098 175.536 186.1 175.58Z" fill="#DADBDA" transform="translate(-124.06 -139.98)"/><path d="M191.06 175.69C191.051 176.829 191.925 177.781 193.06 177.87 194.103 177.837 194.922 176.964 194.889 175.921 194.887 175.877 194.884 175.833 194.88 175.79 194.879 174.657 194.009 173.714 192.88 173.62 191.842 173.648 191.023 174.512 191.051 175.55 191.052 175.597 191.055 175.643 191.06 175.69Z" fill="#DADBDA" transform="translate(-124.06 -139.98)"/><path d="M195.72 175.82C195.696 176.902 196.496 177.827 197.57 177.96 198.546 177.913 199.3 177.084 199.253 176.107 199.251 176.058 199.246 176.009 199.24 175.96 199.265 174.893 198.487 173.977 197.43 173.83 196.453 173.856 195.681 174.668 195.707 175.646 195.708 175.704 195.713 175.762 195.72 175.82Z" fill="#DADBDA" transform="translate(-124.06 -139.98)"/><path d="M200 176C199.936 177.032 200.669 177.942 201.69 178.1 202.58 178.1 203.23 177.25 203.19 176.1 203.225 175.094 202.527 174.21 201.54 174.01 200.68 174 200 174.85 200 176Z" fill="#DADBDA" transform="translate(-124.06 -139.98)"/><path d="M125.32 178.21C124.694 178.308 124.193 178.781 124.06 179.4L124.06 179.89C124.06 180.31 124.06 180.72 124.06 181.14 124.206 181.691 124.682 182.091 125.25 182.14 126.02 182.14 126.69 181.25 126.71 180.14 126.73 179.03 126.1 178.17 125.32 178.21Z" fill="#DADBDA" transform="translate(-124.06 -139.98)"/><path d="M129 178.08C128.011 178.243 127.313 179.141 127.4 180.14 127.276 181.117 127.964 182.01 128.94 182.14 129.95 182 130.674 181.096 130.59 180.08 130.711 179.099 130.014 178.205 129.033 178.084 129.022 178.082 129.011 178.081 129 178.08Z" fill="#DADBDA" transform="translate(-124.06 -139.98)"/><path d="M131.39 180.08C131.287 181.119 132.045 182.044 133.084 182.148 133.093 182.148 133.101 182.149 133.11 182.15 134.183 182.049 134.984 181.116 134.92 180.04 135.022 178.996 134.258 178.066 133.214 177.964 133.196 177.963 133.178 177.961 133.16 177.96 132.098 178.081 131.319 179.014 131.39 180.08Z" fill="#DADBDA" transform="translate(-124.06 -139.98)"/><path d="M137.68 177.87C136.567 177.96 135.723 178.914 135.77 180.03 135.702 181.132 136.538 182.08 137.64 182.15 138.788 182.107 139.683 181.141 139.64 179.993 139.64 179.992 139.64 179.991 139.64 179.99 139.706 178.887 138.867 177.94 137.764 177.873 137.736 177.872 137.708 177.87 137.68 177.87Z" fill="#DADBDA" transform="translate(-124.06 -139.98)"/><path d="M140.5 180C140.444 181.142 141.325 182.113 142.466 182.169 142.478 182.169 142.489 182.17 142.5 182.17 143.676 182.127 144.598 181.146 144.57 179.97 144.615 178.822 143.721 177.855 142.573 177.81 142.572 177.81 142.571 177.81 142.57 177.81 141.401 177.859 140.483 178.83 140.5 180Z" fill="#DADBDA" transform="translate(-124.06 -139.98)"/><path d="M147.66 177.72C146.463 177.763 145.518 178.752 145.53 179.95 145.497 181.131 146.427 182.116 147.609 182.15 147.616 182.15 147.623 182.15 147.63 182.15 148.833 182.123 149.791 181.134 149.78 179.93 149.813 178.743 148.878 177.754 147.691 177.721 147.681 177.72 147.67 177.72 147.66 177.72Z" fill="#DADBDA" transform="translate(-124.06 -139.98)"/><path d="M153 177.68C151.779 177.702 150.8 178.698 150.8 179.92 150.778 181.129 151.74 182.128 152.95 182.15 152.96 182.15 152.97 182.15 152.98 182.15 154.208 182.139 155.196 181.138 155.19 179.91 155.212 178.701 154.25 177.702 153.04 177.68 153.027 177.68 153.013 177.68 153 177.68Z" fill="#DADBDA" transform="translate(-124.06 -139.98)"/><path d="M156.2 179.9C156.189 181.132 157.178 182.139 158.41 182.15 158.417 182.15 158.423 182.15 158.43 182.15 159.672 182.139 160.675 181.132 160.68 179.89 160.68 178.653 159.677 177.65 158.44 177.65 157.203 177.65 156.2 178.653 156.2 179.89Z" fill="#DADBDA" transform="translate(-124.06 -139.98)"/><path d="M161.72 179.89C161.714 181.138 162.722 182.154 163.97 182.16 165.218 182.165 166.234 181.158 166.24 179.91 166.245 178.662 165.238 177.646 163.99 177.64 163.987 177.64 163.983 177.64 163.98 177.64 162.743 177.629 161.731 178.623 161.72 179.86 161.72 179.87 161.72 179.88 161.72 179.89Z" fill="#DADBDA" transform="translate(-124.06 -139.98)"/><path d="M167.28 179.89C167.28 181.133 168.287 182.14 169.53 182.14 170.773 182.14 171.78 181.133 171.78 179.89 171.78 178.647 170.773 177.64 169.53 177.64 168.29 177.645 167.285 178.65 167.28 179.89Z" fill="#DADBDA" transform="translate(-124.06 -139.98)"/><path d="M175 177.66C173.779 177.654 172.785 178.639 172.78 179.86 172.78 179.873 172.78 179.887 172.78 179.9 172.774 181.137 173.773 182.144 175.01 182.15 175.01 182.15 175.01 182.15 175.01 182.15 176.236 182.145 177.226 181.146 177.22 179.92 177.22 179.917 177.22 179.913 177.22 179.91 177.22 178.679 176.231 177.676 175 177.66Z" fill="#DADBDA" transform="translate(-124.06 -139.98)"/><path d="M178.27 179.91C178.264 181.13 179.24 182.128 180.46 182.15 181.658 182.134 182.617 181.149 182.6 179.951 182.6 179.944 182.6 179.937 182.6 179.93 182.606 178.719 181.64 177.727 180.43 177.7 179.232 177.705 178.264 178.681 178.27 179.88 178.27 179.89 178.27 179.9 178.27 179.91Z" fill="#DADBDA" transform="translate(-124.06 -139.98)"/><path d="M183.58 179.94C183.563 181.129 184.502 182.112 185.69 182.15 186.855 182.123 187.778 181.157 187.751 179.992 187.751 179.981 187.75 179.971 187.75 179.96 187.762 178.781 186.838 177.804 185.66 177.75 184.489 177.771 183.558 178.738 183.579 179.908 183.579 179.919 183.58 179.93 183.58 179.94Z" fill="#DADBDA" transform="translate(-124.06 -139.98)"/><path d="M188.69 180C188.65 181.151 189.54 182.121 190.69 182.18 191.794 182.15 192.665 181.231 192.635 180.126 192.634 180.094 192.632 180.062 192.63 180.03 192.659 178.885 191.773 177.924 190.63 177.86 189.526 177.89 188.655 178.81 188.686 179.914 188.687 179.943 188.688 179.971 188.69 180Z" fill="#DADBDA" transform="translate(-124.06 -139.98)"/><path d="M193.52 180C193.441 181.102 194.27 182.059 195.372 182.138 195.381 182.139 195.391 182.139 195.4 182.14 196.469 182.067 197.276 181.14 197.202 180.072 197.202 180.061 197.201 180.051 197.2 180.04 197.253 178.947 196.439 178.005 195.35 177.9 194.28 177.957 193.459 178.871 193.516 179.94 193.517 179.96 193.518 179.98 193.52 180Z" fill="#DADBDA" transform="translate(-124.06 -139.98)"/><path d="M198 180.06C197.944 181.101 198.697 182.011 199.73 182.15 200.728 182.04 201.453 181.15 201.36 180.15 201.453 179.11 200.73 178.173 199.7 178 198.691 178.064 197.925 178.933 197.989 179.941 197.991 179.981 197.995 180.021 198 180.06Z" fill="#DADBDA" transform="translate(-124.06 -139.98)"/><path d="M202.12 180.12C202.039 181.088 202.712 181.957 203.67 182.12L203.83 182.12C203.87 181.38 203.89 180.63 203.89 179.87 203.89 179.303 203.89 178.733 203.89 178.16 203.81 178.15 203.73 178.15 203.65 178.16 202.79 178.11 202.11 179 202.12 180.12Z" fill="#DADBDA" transform="translate(-124.06 -139.98)"/><path d="M124.13 182.31C124.2 183.43 124.31 184.55 124.47 185.64 124.812 185.209 124.986 184.669 124.96 184.12 124.989 183.418 124.681 182.745 124.13 182.31Z" fill="#DADBDA" transform="translate(-124.06 -139.98)"/><path d="M127.11 186.16C127.94 186.16 128.62 185.31 128.61 184.16 128.691 183.192 128.018 182.323 127.06 182.16 126.23 182.16 125.59 183.05 125.61 184.16 125.525 185.112 126.172 185.975 127.11 186.16Z" fill="#DADBDA" transform="translate(-124.06 -139.98)"/><path d="M132.71 184.24C132.766 183.199 132.013 182.289 130.98 182.15 129.982 182.26 129.257 183.15 129.35 184.15 129.296 185.171 130.021 186.068 131.03 186.23 132.038 186.151 132.791 185.271 132.712 184.263 132.711 184.255 132.711 184.248 132.71 184.24Z" fill="#DADBDA" transform="translate(-124.06 -139.98)"/><path d="M137.21 184.29C137.289 183.188 136.46 182.231 135.358 182.152 135.349 182.151 135.339 182.151 135.33 182.15 134.265 182.255 133.471 183.181 133.53 184.25 133.45 185.352 134.278 186.31 135.379 186.39 135.38 186.39 135.38 186.39 135.38 186.39 136.45 186.333 137.271 185.419 137.214 184.35 137.213 184.33 137.212 184.31 137.21 184.29Z" fill="#DADBDA" transform="translate(-124.06 -139.98)"/><path d="M138.1 184.3C138.071 185.447 138.955 186.41 140.1 186.48 141.205 186.483 142.103 185.59 142.106 184.486 142.106 184.434 142.104 184.382 142.1 184.33 142.14 183.179 141.25 182.209 140.1 182.15 138.995 182.147 138.097 183.04 138.094 184.144 138.094 184.196 138.096 184.248 138.1 184.3Z" fill="#DADBDA" transform="translate(-124.06 -139.98)"/><path d="M147.15 184.37C147.172 183.177 146.232 182.188 145.04 182.15 143.875 182.177 142.952 183.143 142.979 184.308 142.979 184.319 142.98 184.329 142.98 184.34 142.963 185.521 143.89 186.501 145.07 186.55 146.235 186.534 147.167 185.577 147.151 184.411 147.151 184.398 147.15 184.384 147.15 184.37Z" fill="#DADBDA" transform="translate(-124.06 -139.98)"/><path d="M152.46 184.39C152.466 183.17 151.49 182.172 150.27 182.15 149.072 182.166 148.113 183.151 148.13 184.349 148.13 184.356 148.13 184.363 148.13 184.37 148.124 185.581 149.09 186.573 150.3 186.6 151.498 186.595 152.466 185.619 152.46 184.42 152.46 184.41 152.46 184.4 152.46 184.39Z" fill="#DADBDA" transform="translate(-124.06 -139.98)"/><path d="M157.91 184.4C157.899 183.174 156.896 182.189 155.67 182.2 154.444 182.211 153.459 183.214 153.47 184.44 153.481 185.658 154.472 186.64 155.69 186.64 156.911 186.646 157.905 185.661 157.91 184.44 157.91 184.427 157.91 184.413 157.91 184.4Z" fill="#DADBDA" transform="translate(-124.06 -139.98)"/><path d="M161.19 182.15C159.942 182.15 158.93 183.162 158.93 184.41 158.93 185.658 159.942 186.67 161.19 186.67 162.438 186.67 163.45 185.658 163.45 184.41 163.461 183.173 162.467 182.161 161.23 182.15 161.217 182.15 161.203 182.15 161.19 182.15Z" fill="#DADBDA" transform="translate(-124.06 -139.98)"/><path d="M166.76 182.15C165.512 182.144 164.496 183.152 164.49 184.4 164.484 185.648 165.492 186.664 166.74 186.67 167.988 186.675 169.004 185.668 169.01 184.42 169.01 184.417 169.01 184.413 169.01 184.41 169.016 183.167 168.013 182.156 166.77 182.15 166.767 182.15 166.763 182.15 166.76 182.15Z" fill="#DADBDA" transform="translate(-124.06 -139.98)"/><path d="M170.05 184.41C170.061 185.647 171.073 186.641 172.31 186.63 173.547 186.619 174.541 185.607 174.53 184.37 174.519 183.145 173.525 182.156 172.3 182.15 171.058 182.161 170.055 183.168 170.05 184.41Z" fill="#DADBDA" transform="translate(-124.06 -139.98)"/><path d="M175.56 184.4C175.543 185.609 176.51 186.603 177.72 186.62 177.73 186.62 177.74 186.62 177.75 186.62 178.974 186.604 179.956 185.604 179.95 184.38 179.972 183.171 179.01 182.172 177.8 182.15 177.79 182.15 177.78 182.15 177.77 182.15 176.541 182.166 175.554 183.171 175.56 184.4Z" fill="#DADBDA" transform="translate(-124.06 -139.98)"/><path d="M181 184.38C180.967 185.561 181.898 186.546 183.079 186.579 183.093 186.58 183.106 186.58 183.12 186.58 184.315 186.542 185.261 185.556 185.25 184.36 185.289 183.179 184.363 182.19 183.182 182.151 183.171 182.15 183.16 182.15 183.15 182.15 181.945 182.183 180.989 183.175 181 184.38Z" fill="#DADBDA" transform="translate(-124.06 -139.98)"/><path d="M186.16 184.35C186.115 185.501 187.009 186.471 188.16 186.52 189.306 186.435 190.184 185.468 190.16 184.32 190.211 183.172 189.321 182.201 188.173 182.151 188.169 182.15 188.164 182.15 188.16 182.15 187.014 182.235 186.136 183.202 186.16 184.35Z" fill="#DADBDA" transform="translate(-124.06 -139.98)"/><path d="M191.14 184.31C191.067 185.412 191.902 186.365 193.004 186.437 193.019 186.439 193.035 186.439 193.05 186.44 194.161 186.345 195.001 185.394 194.96 184.28 195.034 183.178 194.201 182.225 193.098 182.151 193.096 182.15 193.093 182.15 193.09 182.15 191.961 182.22 191.094 183.179 191.14 184.31Z" fill="#DADBDA" transform="translate(-124.06 -139.98)"/><path d="M199.34 184.23C199.449 183.192 198.695 182.262 197.657 182.154 197.645 182.152 197.632 182.151 197.62 182.15 196.542 182.251 195.74 183.19 195.81 184.27 195.714 185.315 196.482 186.24 197.527 186.337 197.542 186.338 197.556 186.339 197.57 186.34 198.627 186.22 199.405 185.292 199.34 184.23Z" fill="#DADBDA" transform="translate(-124.06 -139.98)"/><path d="M200.12 184.21C200.12 185.36 200.83 186.21 201.71 186.21 202.699 186.047 203.397 185.149 203.31 184.15 203.428 183.175 202.743 182.285 201.77 182.15 200.76 182.29 200.036 183.194 200.12 184.21Z" fill="#DADBDA" transform="translate(-124.06 -139.98)"/><path d="M126.83 188.14C126.83 187.04 126.1 186.14 125.32 186.14 125.045 186.128 124.778 186.229 124.58 186.42 124.78 187.64 125.04 188.84 125.34 190.02 125.39 190.025 125.44 190.025 125.49 190.02 126.26 190.07 126.88 189.24 126.83 188.14Z" fill="#DADBDA" transform="translate(-124.06 -139.98)"/><path d="M130.71 188.32C130.769 187.292 130.037 186.388 129.02 186.23 128.13 186.23 127.48 187.08 127.52 188.23 127.464 189.241 128.173 190.134 129.17 190.31 130.05 190.32 130.75 189.45 130.71 188.32Z" fill="#DADBDA" transform="translate(-124.06 -139.98)"/><path d="M135 188.48C135.024 187.398 134.224 186.473 133.15 186.34 132.174 186.387 131.42 187.216 131.467 188.193 131.469 188.242 131.474 188.291 131.48 188.34 131.454 189.409 132.232 190.328 133.29 190.48 134.273 190.449 135.044 189.627 135.013 188.645 135.011 188.59 135.007 188.535 135 188.48Z" fill="#DADBDA" transform="translate(-124.06 -139.98)"/><path d="M139.67 188.62C139.684 187.479 138.808 186.524 137.67 186.44 136.632 186.468 135.813 187.332 135.841 188.37 135.842 188.417 135.845 188.463 135.85 188.51 135.844 189.628 136.688 190.567 137.8 190.68 138.838 190.679 139.679 189.837 139.679 188.799 139.679 188.739 139.676 188.679 139.67 188.62Z" fill="#DADBDA" transform="translate(-124.06 -139.98)"/><path d="M144.63 188.73C144.637 187.553 143.716 186.579 142.54 186.52 141.435 186.518 140.538 187.412 140.536 188.516 140.536 188.558 140.538 188.599 140.54 188.64 140.553 189.8 141.453 190.757 142.61 190.84 143.715 190.853 144.62 189.968 144.633 188.863 144.633 188.819 144.632 188.774 144.63 188.73Z" fill="#DADBDA" transform="translate(-124.06 -139.98)"/><path d="M147.74 191C148.878 191.018 149.814 190.11 149.832 188.972 149.832 188.931 149.832 188.891 149.83 188.85 149.82 187.646 148.864 186.663 147.66 186.62 146.522 186.613 145.594 187.53 145.588 188.668 145.587 188.705 145.588 188.743 145.59 188.78 145.605 189.973 146.548 190.947 147.74 191Z" fill="#DADBDA" transform="translate(-124.06 -139.98)"/><path d="M155.2 188.87C155.189 187.643 154.206 186.647 152.98 186.62 151.793 186.62 150.83 187.582 150.829 188.769 150.829 188.786 150.83 188.803 150.83 188.82 150.841 190.039 151.821 191.028 153.04 191.05 154.211 191.073 155.178 190.142 155.2 188.971 155.201 188.937 155.201 188.904 155.2 188.87Z" fill="#DADBDA" transform="translate(-124.06 -139.98)"/><path d="M160.69 188.9C160.679 187.662 159.678 186.661 158.44 186.65 157.225 186.644 156.235 187.625 156.23 188.84 156.23 188.853 156.23 188.867 156.23 188.88 156.246 190.109 157.241 191.099 158.47 191.11 159.679 191.127 160.673 190.16 160.69 188.95 160.69 188.934 160.69 188.917 160.69 188.9Z" fill="#DADBDA" transform="translate(-124.06 -139.98)"/><path d="M161.73 188.91C161.724 190.153 162.727 191.164 163.97 191.17 165.213 191.176 166.224 190.173 166.23 188.93 166.235 187.687 165.233 186.676 163.99 186.67 163.987 186.67 163.983 186.67 163.98 186.67 162.741 186.67 161.736 187.671 161.73 188.91Z" fill="#DADBDA" transform="translate(-124.06 -139.98)"/><path d="M167.27 188.91C167.276 190.142 168.278 191.136 169.51 191.13 169.51 191.13 169.51 191.13 169.51 191.13 170.747 191.125 171.749 190.126 171.76 188.89 171.766 187.664 170.776 186.666 169.55 186.66 169.543 186.66 169.537 186.66 169.53 186.66 168.286 186.66 167.275 187.666 167.27 188.91Z" fill="#DADBDA" transform="translate(-124.06 -139.98)"/><path d="M177.22 188.85C177.242 187.652 176.289 186.662 175.09 186.64 175.074 186.64 175.057 186.64 175.04 186.64 173.804 186.656 172.806 187.654 172.79 188.89 172.773 190.088 173.731 191.073 174.93 191.09 174.95 191.09 174.97 191.09 174.99 191.09 176.216 191.068 177.204 190.077 177.22 188.85Z" fill="#DADBDA" transform="translate(-124.06 -139.98)"/><path d="M178.23 188.84C178.191 189.999 179.099 190.97 180.259 191.009 180.292 191.01 180.326 191.01 180.36 191.01 181.565 190.973 182.529 189.996 182.55 188.79 182.594 187.626 181.686 186.646 180.522 186.601 180.491 186.6 180.461 186.6 180.43 186.6 179.215 186.637 178.245 187.625 178.23 188.84Z" fill="#DADBDA" transform="translate(-124.06 -139.98)"/><path d="M183.52 188.77C183.448 189.872 184.284 190.824 185.386 190.896 185.43 190.899 185.475 190.9 185.52 190.9 186.701 190.842 187.631 189.872 187.64 188.69 187.717 187.588 186.887 186.632 185.785 186.555 185.737 186.552 185.688 186.55 185.64 186.55 184.458 186.613 183.529 187.586 183.52 188.77Z" fill="#DADBDA" transform="translate(-124.06 -139.98)"/><path d="M190.53 190.76C191.661 190.662 192.529 189.715 192.53 188.58 192.624 187.518 191.839 186.581 190.778 186.487 190.729 186.483 190.679 186.481 190.63 186.48 189.493 186.574 188.621 187.529 188.63 188.67 188.542 189.732 189.331 190.665 190.393 190.753 190.439 190.757 190.484 190.759 190.53 190.76Z" fill="#DADBDA" transform="translate(-124.06 -139.98)"/><path d="M193.43 188.55C193.341 189.562 194.09 190.455 195.102 190.543 195.142 190.547 195.181 190.549 195.22 190.55 196.301 190.413 197.109 189.49 197.1 188.4 197.217 187.391 196.493 186.477 195.484 186.361 195.439 186.355 195.395 186.352 195.35 186.35 194.231 186.465 193.393 187.426 193.43 188.55Z" fill="#DADBDA" transform="translate(-124.06 -139.98)"/><path d="M199.55 190.38C200.572 190.206 201.31 189.306 201.28 188.27 201.432 187.327 200.79 186.439 199.847 186.287 199.798 186.279 199.749 186.274 199.7 186.27 198.653 186.427 197.888 187.342 197.92 188.4 197.776 189.339 198.42 190.217 199.359 190.361 199.422 190.371 199.486 190.377 199.55 190.38Z" fill="#DADBDA" transform="translate(-124.06 -139.98)"/><path d="M202 188.23C201.946 188.84 202.175 189.44 202.62 189.86 202.93 188.66 203.18 187.44 203.38 186.19 202.528 186.501 201.971 187.323 202 188.23Z" fill="#DADBDA" transform="translate(-124.06 -139.98)"/><path d="M128.92 192.23C128.931 191.232 128.243 190.361 127.27 190.14 126.44 190.08 125.86 190.91 125.93 191.97 125.93 191.97 125.93 192.02 125.93 192.04 126.05 192.43 126.18 192.81 126.32 193.19 126.568 193.649 127.015 193.967 127.53 194.05 128.36 194.14 129 193.33 128.92 192.23Z" fill="#DADBDA" transform="translate(-124.06 -139.98)"/><path d="M133 192.51C132.985 191.451 132.215 190.554 131.17 190.38 130.25 190.38 129.58 191.19 129.65 192.29 129.662 193.329 130.408 194.213 131.43 194.4 132.36 194.48 133.07 193.64 133 192.51Z" fill="#DADBDA" transform="translate(-124.06 -139.98)"/><path d="M137.47 192.75C137.45 191.626 136.589 190.697 135.47 190.59 134.52 190.594 133.753 191.367 133.757 192.317 133.757 192.408 133.765 192.5 133.78 192.59 133.809 193.68 134.621 194.589 135.7 194.74 136.649 194.78 137.451 194.042 137.49 193.093 137.495 192.978 137.488 192.863 137.47 192.75Z" fill="#DADBDA" transform="translate(-124.06 -139.98)"/><path d="M140.39 195C141.406 195.026 142.25 194.223 142.276 193.208 142.278 193.138 142.276 193.069 142.27 193 142.234 191.851 141.345 190.911 140.2 190.81 139.184 190.801 138.352 191.617 138.343 192.633 138.343 192.692 138.345 192.751 138.35 192.81 138.389 193.947 139.259 194.881 140.39 195Z" fill="#DADBDA" transform="translate(-124.06 -139.98)"/><path d="M147.32 193.11C147.286 191.927 146.352 190.967 145.17 190.9 144.099 190.864 143.202 191.702 143.165 192.773 143.163 192.845 143.164 192.918 143.17 192.99 143.214 194.156 144.135 195.099 145.3 195.17 146.359 195.228 147.264 194.417 147.322 193.358 147.327 193.275 147.326 193.193 147.32 193.11Z" fill="#DADBDA" transform="translate(-124.06 -139.98)"/><path d="M152.58 193.23C152.549 192.021 151.579 191.047 150.37 191.01 149.266 190.969 148.338 191.83 148.297 192.934 148.295 193.003 148.295 193.072 148.3 193.14 148.351 194.331 149.308 195.284 150.5 195.33 151.604 195.376 152.535 194.518 152.581 193.414 152.583 193.353 152.583 193.291 152.58 193.23Z" fill="#DADBDA" transform="translate(-124.06 -139.98)"/><path d="M158 193.3C157.963 192.08 156.971 191.105 155.75 191.09 154.591 191.062 153.628 191.979 153.6 193.139 153.599 193.176 153.599 193.213 153.6 193.25 153.642 194.457 154.622 195.419 155.83 195.44 156.995 195.473 157.966 194.556 157.999 193.391 158 193.361 158 193.33 158 193.3Z" fill="#DADBDA" transform="translate(-124.06 -139.98)"/><path d="M161.26 195.5C162.453 195.528 163.442 194.583 163.469 193.391 163.47 193.374 163.47 193.357 163.47 193.34 163.454 192.111 162.449 191.124 161.22 191.13 160.022 191.108 159.032 192.061 159.01 193.26 159.01 193.276 159.01 193.293 159.01 193.31 159.043 194.529 160.04 195.5 161.26 195.5Z" fill="#DADBDA" transform="translate(-124.06 -139.98)"/><path d="M164.5 193.34C164.478 194.577 165.463 195.598 166.7 195.62 167.937 195.642 168.957 194.657 168.979 193.42 169.001 192.183 168.017 191.162 166.78 191.14 166.77 191.14 166.76 191.14 166.75 191.14 165.522 191.129 164.516 192.112 164.5 193.34Z" fill="#DADBDA" transform="translate(-124.06 -139.98)"/><path d="M170 193.33C169.994 194.512 170.948 195.475 172.129 195.481 172.15 195.481 172.17 195.48 172.19 195.48 173.407 195.47 174.398 194.497 174.43 193.28 174.447 192.098 173.502 191.127 172.321 191.11 172.297 191.109 172.274 191.11 172.25 191.11 171.023 191.121 170.027 192.104 170 193.33Z" fill="#DADBDA" transform="translate(-124.06 -139.98)"/><path d="M177.59 195.39C178.792 195.359 179.763 194.401 179.81 193.2 179.849 192.052 178.95 191.09 177.802 191.051 177.764 191.05 177.727 191.049 177.69 191.05 176.473 191.076 175.492 192.053 175.46 193.27 175.426 194.407 176.321 195.357 177.458 195.39 177.502 195.392 177.546 195.392 177.59 195.39Z" fill="#DADBDA" transform="translate(-124.06 -139.98)"/><path d="M180.8 193.17C180.75 194.273 181.605 195.208 182.708 195.258 182.739 195.259 182.769 195.26 182.8 195.26 183.982 195.204 184.925 194.253 184.97 193.07 185.031 191.967 184.186 191.024 183.083 190.963 183.045 190.961 183.008 190.96 182.97 190.96 181.781 191.017 180.835 191.98 180.8 193.17Z" fill="#DADBDA" transform="translate(-124.06 -139.98)"/><path d="M186 193C185.939 194.042 186.734 194.936 187.776 194.997 187.831 195.001 187.885 195.002 187.94 195 189.093 194.909 189.993 193.966 190.03 192.81 190.096 191.774 189.31 190.88 188.274 190.814 188.223 190.81 188.171 190.809 188.12 190.81 186.958 190.891 186.043 191.835 186 193Z" fill="#DADBDA" transform="translate(-124.06 -139.98)"/><path d="M192.7 194.84C193.811 194.716 194.662 193.797 194.7 192.68 194.827 191.711 194.144 190.822 193.175 190.695 193.094 190.684 193.012 190.679 192.93 190.68 191.81 190.8 190.954 191.734 190.93 192.86 190.808 193.824 191.492 194.705 192.456 194.826 192.537 194.837 192.618 194.841 192.7 194.84Z" fill="#DADBDA" transform="translate(-124.06 -139.98)"/><path d="M197.19 194.56C198.239 194.387 199.016 193.492 199.04 192.43 199.195 191.526 198.588 190.668 197.684 190.514 197.6 190.499 197.515 190.491 197.43 190.49 196.354 190.642 195.549 191.554 195.53 192.64 195.386 193.545 196.004 194.396 196.909 194.54 197.002 194.554 197.096 194.561 197.19 194.56Z" fill="#DADBDA" transform="translate(-124.06 -139.98)"/><path d="M201.56 190.26C200.55 190.464 199.823 191.35 199.82 192.38 199.75 193.46 200.39 194.27 201.24 194.23 201.7 193.04 202.1 191.82 202.45 190.58 202.21 190.356 201.888 190.24 201.56 190.26Z" fill="#DADBDA" transform="translate(-124.06 -139.98)"/><path d="M126.84 194.57C127 194.98 127.17 195.39 127.35 195.79 127.281 195.348 127.106 194.93 126.84 194.57Z" fill="#DADBDA" transform="translate(-124.06 -139.98)"/><path d="M129.8 198.1C130.67 198.2 131.32 197.42 131.22 196.34 131.167 195.314 130.434 194.45 129.43 194.23 128.56 194.16 127.95 194.96 128.06 196.01 128.116 197.014 128.823 197.863 129.8 198.1Z" fill="#DADBDA" transform="translate(-124.06 -139.98)"/><path d="M135.47 196.7C135.412 195.621 134.608 194.728 133.54 194.56 132.69 194.537 131.982 195.208 131.959 196.058 131.956 196.176 131.966 196.294 131.99 196.41 132.057 197.465 132.838 198.337 133.88 198.52 134.724 198.569 135.447 197.924 135.496 197.081 135.503 196.953 135.494 196.825 135.47 196.7Z" fill="#DADBDA" transform="translate(-124.06 -139.98)"/><path d="M140.08 197C140.006 195.88 139.144 194.972 138.03 194.84 137.108 194.802 136.331 195.518 136.292 196.44 136.288 196.547 136.294 196.654 136.31 196.76 136.39 197.853 137.224 198.742 138.31 198.89 139.23 198.954 140.028 198.259 140.091 197.339 140.099 197.226 140.095 197.112 140.08 197Z" fill="#DADBDA" transform="translate(-124.06 -139.98)"/><path d="M145 197.24C144.924 196.088 144.011 195.167 142.86 195.08 141.878 195.028 141.04 195.782 140.989 196.764 140.983 196.869 140.987 196.975 141 197.08 141.085 198.217 141.983 199.125 143.12 199.22 144.101 199.282 144.946 198.536 145.008 197.555 145.015 197.45 145.012 197.345 145 197.24Z" fill="#DADBDA" transform="translate(-124.06 -139.98)"/><path d="M148.09 199.43C149.132 199.493 150.027 198.699 150.09 197.657 150.095 197.581 150.095 197.506 150.09 197.43 150.02 196.25 149.07 195.314 147.89 195.26 146.848 195.197 145.953 195.991 145.89 197.033 145.885 197.109 145.885 197.184 145.89 197.26 145.965 198.438 146.912 199.371 148.09 199.43Z" fill="#DADBDA" transform="translate(-124.06 -139.98)"/><path d="M155.37 197.56C155.308 196.365 154.336 195.42 153.14 195.39 152.036 195.351 151.109 196.214 151.07 197.317 151.068 197.365 151.068 197.413 151.07 197.46 151.138 198.644 152.105 199.576 153.29 199.6 154.394 199.644 155.324 198.786 155.369 197.682 155.37 197.641 155.371 197.601 155.37 197.56Z" fill="#DADBDA" transform="translate(-124.06 -139.98)"/><path d="M160.77 197.64C160.727 196.434 159.737 195.479 158.53 195.48 157.388 195.436 156.426 196.326 156.381 197.468 156.38 197.505 156.379 197.543 156.38 197.58 156.439 198.77 157.418 199.706 158.61 199.71 159.752 199.76 160.718 198.874 160.768 197.732 160.769 197.701 160.77 197.671 160.77 197.64Z" fill="#DADBDA" transform="translate(-124.06 -139.98)"/><path d="M164 199.76C165.189 199.788 166.177 198.849 166.21 197.66 166.183 196.453 165.187 195.493 163.98 195.51 162.787 195.488 161.802 196.437 161.78 197.63 161.78 197.636 161.78 197.643 161.78 197.65 161.823 198.84 162.809 199.777 164 199.76Z" fill="#DADBDA" transform="translate(-124.06 -139.98)"/><path d="M171.65 197.62C171.656 196.455 170.716 195.505 169.551 195.499 169.524 195.499 169.497 195.499 169.47 195.5 168.267 195.494 167.278 196.447 167.24 197.65 167.245 198.81 168.189 199.746 169.348 199.741 169.372 199.741 169.396 199.741 169.42 199.74 170.614 199.752 171.601 198.813 171.65 197.62Z" fill="#DADBDA" transform="translate(-124.06 -139.98)"/><path d="M177 197.53C177.051 196.427 176.199 195.49 175.095 195.439 175.027 195.436 174.958 195.436 174.89 195.44 173.686 195.455 172.703 196.407 172.65 197.61 172.648 198.715 173.542 199.612 174.646 199.614 174.688 199.614 174.729 199.612 174.77 199.61 175.941 199.603 176.912 198.698 177 197.53Z" fill="#DADBDA" transform="translate(-124.06 -139.98)"/><path d="M180.06 199.52C181.234 199.476 182.184 198.552 182.26 197.38 182.294 196.309 181.453 195.414 180.382 195.38 180.341 195.379 180.301 195.379 180.26 195.38 179.07 195.392 178.088 196.314 178 197.5 177.948 198.565 178.769 199.47 179.833 199.522 179.909 199.526 179.984 199.525 180.06 199.52Z" fill="#DADBDA" transform="translate(-124.06 -139.98)"/><path d="M185.17 199.31C186.32 199.233 187.238 198.32 187.32 197.17 187.41 196.158 186.661 195.265 185.649 195.175 185.566 195.168 185.483 195.166 185.4 195.17 184.231 195.239 183.299 196.171 183.23 197.34 183.145 198.342 183.887 199.223 184.889 199.308 184.982 199.316 185.076 199.317 185.17 199.31Z" fill="#DADBDA" transform="translate(-124.06 -139.98)"/><path d="M190.06 199.05C191.173 198.927 192.04 198.027 192.12 196.91 192.248 195.974 191.594 195.112 190.658 194.984 190.553 194.969 190.446 194.965 190.34 194.97 189.204 195.076 188.314 195.992 188.24 197.13 188.133 198.079 188.817 198.936 189.766 199.042 189.864 199.053 189.962 199.056 190.06 199.05Z" fill="#DADBDA" transform="translate(-124.06 -139.98)"/><path d="M194.67 198.71C195.755 198.566 196.59 197.681 196.67 196.59 196.825 195.72 196.246 194.889 195.376 194.734 195.262 194.713 195.146 194.705 195.03 194.71 193.94 194.859 193.105 195.753 193.03 196.85 192.886 197.722 193.476 198.545 194.347 198.69 194.454 198.707 194.562 198.714 194.67 198.71Z" fill="#DADBDA" transform="translate(-124.06 -139.98)"/><path d="M199.29 194.4C198.253 194.597 197.485 195.476 197.43 196.53 197.34 197.62 198.02 198.42 198.94 198.32 199.128 198.297 199.31 198.243 199.48 198.16 199.92 197.3 200.33 196.42 200.72 195.52 200.599 194.836 199.983 194.354 199.29 194.4Z" fill="#DADBDA" transform="translate(-124.06 -139.98)"/><path d="M129.66 199.93C129.562 199.126 129.097 198.413 128.4 198 128.8 198.78 129.22 199.55 129.67 200.3 129.676 200.177 129.672 200.053 129.66 199.93Z" fill="#DADBDA" transform="translate(-124.06 -139.98)"/><path d="M132.24 202.09C133.15 202.2 133.81 201.46 133.69 200.41 133.583 199.372 132.813 198.525 131.79 198.32 130.87 198.22 130.25 199 130.38 200.02 130.493 201.037 131.241 201.869 132.24 202.09Z" fill="#DADBDA" transform="translate(-124.06 -139.98)"/><path d="M138.08 200.82C137.974 199.742 137.15 198.874 136.08 198.71 135.265 198.643 134.551 199.249 134.483 200.063 134.471 200.206 134.48 200.35 134.51 200.49 134.637 201.551 135.454 202.397 136.51 202.56 137.319 202.63 138.031 202.03 138.101 201.221 138.112 201.087 138.105 200.952 138.08 200.82Z" fill="#DADBDA" transform="translate(-124.06 -139.98)"/><path d="M141 203C141.878 203.096 142.668 202.462 142.764 201.583 142.778 201.456 142.777 201.327 142.76 201.2 142.646 200.081 141.759 199.199 140.64 199.09 139.76 199.013 138.984 199.665 138.907 200.545 138.896 200.673 138.9 200.803 138.92 200.93 139.044 202.021 139.908 202.881 141 203Z" fill="#DADBDA" transform="translate(-124.06 -139.98)"/><path d="M147.74 201.42C147.625 200.279 146.704 199.387 145.56 199.31 144.608 199.233 143.773 199.943 143.697 200.895 143.688 201 143.689 201.105 143.7 201.21 143.827 202.332 144.734 203.206 145.86 203.29 146.812 203.376 147.653 202.675 147.739 201.723 147.748 201.622 147.749 201.521 147.74 201.42Z" fill="#DADBDA" transform="translate(-124.06 -139.98)"/><path d="M152.88 201.62C152.784 200.46 151.833 199.557 150.67 199.52 149.658 199.43 148.764 200.177 148.674 201.189 148.665 201.282 148.664 201.376 148.67 201.47 148.784 202.61 149.724 203.491 150.87 203.53 151.876 203.631 152.772 202.897 152.873 201.891 152.882 201.801 152.884 201.71 152.88 201.62Z" fill="#DADBDA" transform="translate(-124.06 -139.98)"/><path d="M158.16 201.75C158.077 200.582 157.111 199.673 155.94 199.66 154.836 199.616 153.906 200.475 153.862 201.578 153.861 201.606 153.86 201.633 153.86 201.66 153.982 202.795 154.938 203.656 156.08 203.66 157.149 203.737 158.078 202.934 158.155 201.865 158.158 201.827 158.16 201.788 158.16 201.75Z" fill="#DADBDA" transform="translate(-124.06 -139.98)"/><path d="M161.37 203.8C162.501 203.856 163.463 202.984 163.518 201.853 163.519 201.835 163.52 201.818 163.52 201.8 163.461 200.627 162.484 199.712 161.31 199.73 160.209 199.647 159.248 200.473 159.166 201.574 159.162 201.626 159.16 201.678 159.16 201.73 159.214 202.905 160.194 203.823 161.37 203.8Z" fill="#DADBDA" transform="translate(-124.06 -139.98)"/><path d="M166.7 203.82C167.849 203.849 168.815 202.966 168.89 201.82 168.847 200.672 167.881 199.776 166.733 199.819 166.729 199.82 166.724 199.82 166.72 199.82 165.547 199.781 164.563 200.697 164.52 201.87 164.6 203.002 165.566 203.866 166.7 203.82Z" fill="#DADBDA" transform="translate(-124.06 -139.98)"/><path d="M172 203.76C173.149 203.775 174.116 202.904 174.22 201.76 174.222 200.655 173.328 199.759 172.223 199.757 172.185 199.757 172.148 199.758 172.11 199.76 170.933 199.748 169.954 200.664 169.89 201.84 169.932 202.944 170.862 203.804 171.965 203.762 171.977 203.761 171.988 203.761 172 203.76Z" fill="#DADBDA" transform="translate(-124.06 -139.98)"/><path d="M177.26 203.63C178.413 203.604 179.364 202.718 179.47 201.57 179.527 200.522 178.723 199.627 177.676 199.57 177.607 199.566 177.538 199.566 177.47 199.57 176.299 199.593 175.337 200.502 175.25 201.67 175.209 202.713 176.022 203.592 177.065 203.632 177.13 203.635 177.195 203.634 177.26 203.63Z" fill="#DADBDA" transform="translate(-124.06 -139.98)"/><path d="M182.38 203.42C183.516 203.358 184.439 202.481 184.56 201.35 184.641 200.37 183.912 199.511 182.932 199.43 182.835 199.422 182.737 199.422 182.64 199.43 181.484 199.48 180.544 200.378 180.44 201.53 180.375 202.511 181.118 203.359 182.099 203.424 182.192 203.43 182.286 203.429 182.38 203.42Z" fill="#DADBDA" transform="translate(-124.06 -139.98)"/><path d="M187.31 203.13C188.423 203.037 189.315 202.17 189.44 201.06 189.554 200.145 188.904 199.31 187.989 199.197 187.873 199.182 187.756 199.18 187.64 199.19 186.509 199.285 185.606 200.171 185.49 201.3 185.385 202.205 186.034 203.024 186.939 203.129 187.062 203.143 187.187 203.144 187.31 203.13Z" fill="#DADBDA" transform="translate(-124.06 -139.98)"/><path d="M192 202.77C193.057 202.61 193.877 201.762 194 200.7 194.159 199.87 193.614 199.069 192.784 198.91 192.641 198.883 192.495 198.876 192.35 198.89 191.25 199.021 190.39 199.898 190.28 201 190.139 201.833 190.701 202.623 191.534 202.763 191.688 202.789 191.845 202.792 192 202.77Z" fill="#DADBDA" transform="translate(-124.06 -139.98)"/><path d="M196.85 198.52C195.788 198.693 194.971 199.551 194.85 200.62 194.68 201.38 195.158 202.134 195.917 202.304 196.069 202.338 196.225 202.347 196.38 202.33 196.649 202.3 196.909 202.211 197.14 202.07 197.55 201.46 197.94 200.84 198.32 200.2 198.471 199.436 197.973 198.695 197.209 198.544 197.091 198.521 196.97 198.513 196.85 198.52Z" fill="#DADBDA" transform="translate(-124.06 -139.98)"/><path d="M130.7 202C131.16 202.69 131.64 203.37 132.15 204 132.15 203.95 132.15 203.91 132.15 203.86 131.989 203.045 131.451 202.355 130.7 202Z" fill="#DADBDA" transform="translate(-124.06 -139.98)"/><path d="M136.31 204.37C136.129 203.35 135.33 202.551 134.31 202.37 133.599 202.273 132.943 202.771 132.846 203.482 132.823 203.655 132.834 203.831 132.88 204 133.053 205.024 133.856 205.827 134.88 206 135.578 206.112 136.235 205.638 136.347 204.94 136.378 204.749 136.365 204.555 136.31 204.37Z" fill="#DADBDA" transform="translate(-124.06 -139.98)"/><path d="M140.81 204.81C140.629 203.756 139.781 202.944 138.72 202.81 137.943 202.7 137.225 203.241 137.115 204.017 137.093 204.178 137.098 204.341 137.13 204.5 137.307 205.544 138.141 206.354 139.19 206.5 139.964 206.627 140.694 206.102 140.821 205.328 140.849 205.156 140.845 204.981 140.81 204.81Z" fill="#DADBDA" transform="translate(-124.06 -139.98)"/><path d="M145.57 205.16C145.399 204.078 144.512 203.252 143.42 203.16 142.571 203.047 141.792 203.643 141.679 204.492 141.66 204.63 141.661 204.771 141.68 204.91 141.85 205.989 142.732 206.813 143.82 206.91 144.661 207.035 145.445 206.455 145.57 205.614 145.592 205.463 145.592 205.31 145.57 205.16Z" fill="#DADBDA" transform="translate(-124.06 -139.98)"/><path d="M148.67 207.19C149.578 207.313 150.415 206.677 150.538 205.768 150.553 205.66 150.557 205.55 150.55 205.44 150.393 204.331 149.469 203.491 148.35 203.44 147.44 203.326 146.61 203.97 146.496 204.88 146.481 204.999 146.479 205.12 146.49 205.24 146.66 206.326 147.572 207.141 148.67 207.19Z" fill="#DADBDA" transform="translate(-124.06 -139.98)"/><path d="M155.68 205.63C155.554 204.501 154.606 203.643 153.47 203.63 152.495 203.507 151.604 204.199 151.482 205.174 151.469 205.276 151.465 205.378 151.47 205.48 151.587 206.61 152.534 207.471 153.67 207.48 154.645 207.608 155.539 206.922 155.667 205.947 155.681 205.842 155.685 205.736 155.68 205.63Z" fill="#DADBDA" transform="translate(-124.06 -139.98)"/><path d="M160.91 205.74C160.825 204.598 159.865 203.721 158.72 203.74 157.663 203.657 156.739 204.447 156.656 205.504 156.652 205.549 156.65 205.595 156.65 205.64 156.774 206.752 157.722 207.587 158.84 207.57 159.885 207.664 160.809 206.894 160.903 205.849 160.907 205.813 160.909 205.776 160.91 205.74Z" fill="#DADBDA" transform="translate(-124.06 -139.98)"/><path d="M164.06 207.65C165.162 207.724 166.115 206.89 166.189 205.788 166.189 205.782 166.19 205.776 166.19 205.77 166.158 204.633 165.211 203.737 164.073 203.768 164.059 203.769 164.044 203.769 164.03 203.77 162.928 203.698 161.976 204.532 161.903 205.635 161.902 205.656 161.901 205.678 161.9 205.7 161.959 206.834 162.926 207.707 164.06 207.65Z" fill="#DADBDA" transform="translate(-124.06 -139.98)"/><path d="M171.46 205.71C171.412 204.606 170.478 203.751 169.375 203.799 169.37 203.8 169.365 203.8 169.36 203.8 168.211 203.766 167.245 204.653 167.18 205.8 167.25 206.893 168.186 207.727 169.28 207.67 170.414 207.705 171.375 206.841 171.46 205.71Z" fill="#DADBDA" transform="translate(-124.06 -139.98)"/><path d="M176.67 205.58C176.684 204.553 175.863 203.709 174.835 203.695 174.78 203.694 174.725 203.696 174.67 203.7 173.529 203.7 172.573 204.564 172.46 205.7 172.468 206.722 173.302 207.544 174.324 207.536 174.369 207.536 174.415 207.534 174.46 207.53 175.588 207.542 176.542 206.7 176.67 205.58Z" fill="#DADBDA" transform="translate(-124.06 -139.98)"/><path d="M179.57 207.33C180.69 207.286 181.615 206.441 181.76 205.33 181.815 204.371 181.082 203.548 180.122 203.493 180.028 203.488 179.934 203.49 179.84 203.5 178.713 203.535 177.777 204.382 177.63 205.5 177.567 206.453 178.29 207.277 179.243 207.34 179.352 207.347 179.462 207.343 179.57 207.33Z" fill="#DADBDA" transform="translate(-124.06 -139.98)"/><path d="M184.51 207C185.61 206.923 186.508 206.091 186.67 205 186.772 204.122 186.142 203.328 185.265 203.227 185.133 203.212 185.001 203.213 184.87 203.23 183.762 203.298 182.853 204.132 182.69 205.23 182.587 206.108 183.215 206.903 184.092 207.006 184.231 207.022 184.372 207.02 184.51 207Z" fill="#DADBDA" transform="translate(-124.06 -139.98)"/><path d="M189.26 206.67C190.329 206.549 191.187 205.732 191.36 204.67 191.472 203.86 190.906 203.113 190.097 203.001 189.965 202.983 189.832 202.983 189.7 203 188.619 203.108 187.746 203.928 187.57 205 187.449 205.803 188.002 206.552 188.804 206.673 188.956 206.695 189.109 206.695 189.26 206.67Z" fill="#DADBDA" transform="translate(-124.06 -139.98)"/><path d="M194.25 202.56C193.226 202.733 192.423 203.536 192.25 204.56 192.091 205.288 192.552 206.008 193.281 206.167 193.448 206.204 193.621 206.208 193.79 206.18L194.08 206.12C194.68 205.42 195.26 204.71 195.82 203.98 195.876 203.242 195.322 202.599 194.584 202.543 194.473 202.535 194.36 202.54 194.25 202.56Z" fill="#DADBDA" transform="translate(-124.06 -139.98)"/><path d="M139 208.16C138.786 207.147 137.964 206.373 136.94 206.22 136.275 206.081 135.623 206.508 135.485 207.173 135.445 207.36 135.451 207.555 135.5 207.74L135.56 207.97C136.11 208.52 136.67 209.06 137.24 209.57L137.54 209.64C138.196 209.792 138.852 209.383 139.004 208.727 139.047 208.54 139.046 208.346 139 208.16Z" fill="#DADBDA" transform="translate(-124.06 -139.98)"/><path d="M142 210.14C142.723 210.299 143.438 209.843 143.597 209.12 143.634 208.952 143.638 208.779 143.61 208.61 143.398 207.568 142.537 206.784 141.48 206.67 140.742 206.531 140.031 207.016 139.892 207.754 139.861 207.918 139.86 208.086 139.89 208.25 140.113 209.269 140.963 210.03 142 210.14Z" fill="#DADBDA" transform="translate(-124.06 -139.98)"/><path d="M148.39 209C148.194 207.937 147.299 207.145 146.22 207.08 145.409 206.942 144.639 207.488 144.501 208.299 144.478 208.438 144.474 208.58 144.49 208.72 144.708 209.752 145.587 210.513 146.64 210.58 147.436 210.738 148.21 210.221 148.368 209.425 148.396 209.285 148.403 209.142 148.39 209Z" fill="#DADBDA" transform="translate(-124.06 -139.98)"/><path d="M153.35 209.22C153.172 208.144 152.25 207.349 151.16 207.33 150.281 207.196 149.46 207.8 149.325 208.679 149.308 208.791 149.303 208.906 149.31 209.02 149.513 210.068 150.422 210.832 151.49 210.85 152.362 210.994 153.185 210.404 153.329 209.532 153.346 209.429 153.353 209.325 153.35 209.22Z" fill="#DADBDA" transform="translate(-124.06 -139.98)"/><path d="M158.43 209.39C158.288 208.305 157.354 207.501 156.26 207.52 155.31 207.376 154.423 208.03 154.279 208.98 154.265 209.073 154.259 209.166 154.26 209.26 154.434 210.318 155.358 211.089 156.43 211.07 157.374 211.219 158.26 210.575 158.409 209.631 158.422 209.552 158.429 209.471 158.43 209.39Z" fill="#DADBDA" transform="translate(-124.06 -139.98)"/><path d="M161.54 211.19C162.568 211.292 163.484 210.542 163.586 209.515 163.588 209.5 163.589 209.485 163.59 209.47 163.505 208.372 162.548 207.55 161.45 207.63 160.42 207.557 159.526 208.333 159.453 209.363 159.452 209.379 159.451 209.394 159.45 209.41 159.592 210.449 160.492 211.215 161.54 211.19Z" fill="#DADBDA" transform="translate(-124.06 -139.98)"/><path d="M166.64 211.21C167.703 211.281 168.635 210.508 168.76 209.45 168.686 208.381 167.76 207.575 166.691 207.648 166.684 207.649 166.677 207.649 166.67 207.65 165.59 207.586 164.655 208.393 164.56 209.47 164.649 210.521 165.574 211.301 166.625 211.211 166.63 211.211 166.635 211.211 166.64 211.21Z" fill="#DADBDA" transform="translate(-124.06 -139.98)"/><path d="M171.74 211.14C172.808 211.177 173.733 210.407 173.89 209.35 173.874 208.356 173.055 207.563 172.061 207.579 172.004 207.58 171.947 207.584 171.89 207.59 170.796 207.551 169.854 208.354 169.72 209.44 169.774 210.438 170.627 211.204 171.625 211.15 171.663 211.148 171.702 211.145 171.74 211.14Z" fill="#DADBDA" transform="translate(-124.06 -139.98)"/><path d="M176.77 211C177.84 211.001 178.755 210.234 178.94 209.18 178.971 208.253 178.244 207.476 177.317 207.445 177.221 207.442 177.125 207.447 177.03 207.46 175.939 207.472 175.016 208.271 174.85 209.35 174.844 210.267 175.583 211.015 176.499 211.02 176.59 211.021 176.681 211.014 176.77 211Z" fill="#DADBDA" transform="translate(-124.06 -139.98)"/><path d="M181.68 210.71C182.745 210.668 183.645 209.904 183.86 208.86 183.931 208.001 183.293 207.247 182.435 207.176 182.31 207.166 182.184 207.17 182.06 207.19 180.978 207.242 180.074 208.034 179.88 209.1 179.822 209.943 180.459 210.673 181.302 210.731 181.428 210.74 181.555 210.733 181.68 210.71Z" fill="#DADBDA" transform="translate(-124.06 -139.98)"/><path d="M186.44 210.35C187.485 210.261 188.352 209.504 188.58 208.48 188.692 207.698 188.149 206.974 187.367 206.862 187.215 206.84 187.061 206.843 186.91 206.87 185.842 206.958 184.963 207.747 184.76 208.8 184.667 209.573 185.219 210.275 185.992 210.368 186.141 210.386 186.293 210.38 186.44 210.35Z" fill="#DADBDA" transform="translate(-124.06 -139.98)"/><path d="M193 207.29C192.781 206.69 192.157 206.338 191.53 206.46 190.488 206.592 189.644 207.371 189.43 208.4 189.286 209.053 189.69 209.702 190.34 209.86 191.27 209 192.16 208.19 193 207.29Z" fill="#DADBDA" transform="translate(-124.06 -139.98)"/><path d="M141.86 211.72C141.587 210.744 140.755 210.027 139.75 209.9 139.204 209.783 138.647 210.04 138.38 210.53 139.38 211.35 140.38 212.13 141.45 212.85 141.808 212.595 141.971 212.145 141.86 211.72Z" fill="#DADBDA" transform="translate(-124.06 -139.98)"/><path d="M146.44 212.15C146.182 211.152 145.318 210.428 144.29 210.35 143.29 210.26 142.54 210.93 142.7 211.81 142.982 212.777 143.835 213.467 144.84 213.54 145.86 213.64 146.58 213 146.44 212.15Z" fill="#DADBDA" transform="translate(-124.06 -139.98)"/><path d="M149.48 213.92C150.54 214 151.31 213.37 151.21 212.48 150.972 211.47 150.087 210.745 149.05 210.71 147.96 210.64 147.19 211.34 147.32 212.22 147.585 213.202 148.463 213.893 149.48 213.92Z" fill="#DADBDA" transform="translate(-124.06 -139.98)"/><path d="M156.12 212.71C155.897 211.716 155.018 211.008 154 211 152.88 211 152.06 211.67 152.16 212.56 152.395 213.553 153.29 214.248 154.31 214.23 155.36 214.25 156.19 213.61 156.12 212.71Z" fill="#DADBDA" transform="translate(-124.06 -139.98)"/><path d="M161.12 212.85C160.944 211.824 160.03 211.09 158.99 211.14 157.85 211.14 156.99 211.85 157.05 212.74 157.232 213.749 158.147 214.458 159.17 214.38 160.098 214.522 160.965 213.884 161.107 212.956 161.113 212.921 161.117 212.886 161.12 212.85Z" fill="#DADBDA" transform="translate(-124.06 -139.98)"/><path d="M164.12 214.46C165.103 214.555 165.985 213.858 166.12 212.88 166 211.857 165.086 211.116 164.06 211.21 163.053 211.117 162.16 211.854 162.06 212.86 162.219 213.852 163.119 214.552 164.12 214.46Z" fill="#DADBDA" transform="translate(-124.06 -139.98)"/><path d="M171.18 212.81C171.112 211.84 170.271 211.109 169.301 211.177 169.261 211.18 169.22 211.184 169.18 211.19 168.155 211.131 167.252 211.857 167.09 212.87 167.191 213.837 168.056 214.539 169.023 214.438 169.045 214.436 169.068 214.433 169.09 214.43 170.095 214.493 170.991 213.799 171.18 212.81Z" fill="#DADBDA" transform="translate(-124.06 -139.98)"/><path d="M176.16 212.65C176.24 211.76 175.39 211.03 174.26 211.07 173.222 211.042 172.316 211.77 172.12 212.79 172.07 213.69 172.93 214.34 174.02 214.3 175.037 214.335 175.935 213.642 176.16 212.65Z" fill="#DADBDA" transform="translate(-124.06 -139.98)"/><path d="M178.87 214.08C179.889 214.068 180.773 213.376 181.03 212.39 181.15 211.5 180.35 210.8 179.24 210.85 178.198 210.863 177.303 211.592 177.08 212.61 177 213.5 177.8 214.14 178.87 214.08Z" fill="#DADBDA" transform="translate(-124.06 -139.98)"/><path d="M183.59 213.75C184.6 213.694 185.464 213.004 185.74 212.03 185.89 211.15 185.15 210.46 184.09 210.54 183.052 210.596 182.173 211.322 181.92 212.33 181.8 213.22 182.55 213.83 183.59 213.75Z" fill="#DADBDA" transform="translate(-124.06 -139.98)"/><path d="M188.74 210.14C187.709 210.254 186.856 210.995 186.6 212 186.557 212.259 186.595 212.524 186.71 212.76 187.77 212.02 188.79 211.24 189.77 210.4 189.466 210.199 189.103 210.107 188.74 210.14Z" fill="#DADBDA" transform="translate(-124.06 -139.98)"/><path d="M142.59 213.32C142.441 213.3 142.289 213.3 142.14 213.32 142.97 213.86 143.82 214.37 144.68 214.85 144.312 213.999 143.512 213.414 142.59 213.32Z" fill="#DADBDA" transform="translate(-124.06 -139.98)"/><path d="M149.28 215.37C148.973 214.437 148.121 213.792 147.14 213.75 146.14 213.66 145.39 214.27 145.56 215.06 145.589 215.17 145.63 215.277 145.68 215.38 146.52 215.81 147.37 216.22 148.24 216.59 149 216.48 149.39 216 149.28 215.37Z" fill="#DADBDA" transform="translate(-124.06 -139.98)"/><path d="M154 215.66C153.72 214.719 152.852 214.075 151.87 214.08 150.79 214.01 150.03 214.64 150.16 215.43 150.469 216.342 151.327 216.954 152.29 216.95 153.32 217 154.09 216.46 154 215.66Z" fill="#DADBDA" transform="translate(-124.06 -139.98)"/><path d="M158.81 215.85C158.565 214.902 157.689 214.255 156.71 214.3 155.61 214.3 154.79 214.91 154.89 215.71 155.162 216.625 156.027 217.233 156.98 217.18 158 217.22 158.86 216.65 158.81 215.85Z" fill="#DADBDA" transform="translate(-124.06 -139.98)"/><path d="M161.76 217.31C162.83 217.31 163.69 216.74 163.68 215.94 163.67 215.14 162.76 214.45 161.68 214.43 160.6 214.41 159.68 215.08 159.76 215.88 159.84 216.68 160.69 217.29 161.76 217.31Z" fill="#DADBDA" transform="translate(-124.06 -139.98)"/><path d="M168.57 215.93C168.57 215.13 167.73 214.45 166.57 214.46 165.41 214.47 164.57 215.15 164.57 215.95 164.57 216.75 165.46 217.34 166.57 217.34 167.68 217.34 168.54 216.72 168.57 215.93Z" fill="#DADBDA" transform="translate(-124.06 -139.98)"/><path d="M171.37 217.26C172.317 217.329 173.181 216.723 173.44 215.81 173.51 215.01 172.67 214.35 171.56 214.38 170.45 214.41 169.56 215.12 169.49 215.91 169.42 216.7 170.3 217.29 171.37 217.26Z" fill="#DADBDA" transform="translate(-124.06 -139.98)"/><path d="M176.11 217.08C177.069 217.107 177.93 216.495 178.22 215.58 178.34 214.79 177.55 214.15 176.46 214.2 175.478 214.177 174.605 214.824 174.34 215.77 174.26 216.57 175.06 217.13 176.11 217.08Z" fill="#DADBDA" transform="translate(-124.06 -139.98)"/><path d="M181.25 213.92C180.267 213.946 179.408 214.592 179.11 215.53 179.039 215.977 179.277 216.416 179.69 216.6 180.79 216.13 181.86 215.6 182.91 215.04 182.9 214.36 182.21 213.86 181.25 213.92Z" fill="#DADBDA" transform="translate(-124.06 -139.98)"/><path d="M184.35 214.23 185.18 213.72C184.875 213.838 184.593 214.011 184.35 214.23Z" fill="#DADBDA" transform="translate(-124.06 -139.98)"/><path d="M150 216.79C149.681 216.757 149.358 216.802 149.06 216.92 150.06 217.31 151.06 217.67 152.06 217.99 151.621 217.267 150.845 216.816 150 216.79Z" fill="#DADBDA" transform="translate(-124.06 -139.98)"/><path d="M156.69 218.45C156.61 217.77 155.69 217.13 154.62 217.08 153.55 217.03 152.81 217.58 152.94 218.26L152.94 218.26C154.1 218.59 155.27 218.87 156.47 219.1 156.643 218.931 156.724 218.689 156.69 218.45Z" fill="#DADBDA" transform="translate(-124.06 -139.98)"/><path d="M161.38 218.59C161.38 217.91 160.44 217.29 159.38 217.26 158.32 217.23 157.5 217.8 157.59 218.49 157.679 218.904 157.962 219.25 158.35 219.42 159.02 219.51 159.69 219.59 160.35 219.65 161 219.49 161.41 219.09 161.38 218.59Z" fill="#DADBDA" transform="translate(-124.06 -139.98)"/><path d="M162.27 218.61C162.27 219.29 163.17 219.8 164.21 219.81 165.25 219.82 166.09 219.31 166.1 218.63 166.11 217.95 165.25 217.34 164.16 217.34 163.07 217.34 162.23 217.92 162.27 218.61Z" fill="#DADBDA" transform="translate(-124.06 -139.98)"/><path d="M170.82 218.56C170.88 217.88 170.05 217.29 168.97 217.31 167.89 217.33 166.97 217.94 166.97 218.62 167.007 219.109 167.361 219.515 167.84 219.62 168.68 219.54 169.52 219.44 170.34 219.3 170.595 219.13 170.769 218.862 170.82 218.56Z" fill="#DADBDA" transform="translate(-124.06 -139.98)"/><path d="M173.75 217.18C172.68 217.18 171.75 217.85 171.7 218.54 171.682 218.717 171.728 218.894 171.83 219.04 173.07 218.79 174.29 218.49 175.48 218.13 175.39 217.57 174.68 217.14 173.75 217.18Z" fill="#DADBDA" transform="translate(-124.06 -139.98)"/><path d="M178.45 217C177.773 217.028 177.132 217.314 176.66 217.8 177.39 217.56 178.12 217.29 178.84 217Z" fill="#DADBDA" transform="translate(-124.06 -139.98)"/><path d="M200.76 164.37C203.668 184.686 189.557 203.513 169.241 206.421 148.925 209.329 130.098 195.218 127.19 174.902 126.69 171.409 126.69 167.863 127.19 164.37 118.626 184.686 128.152 208.098 148.468 216.662 168.784 225.226 192.196 215.7 200.76 195.384 204.94 185.469 204.94 174.286 200.76 164.37Z" fill="#E8E8E8" transform="translate(-124.06 -139.98)"/></g></g></svg>