<svg viewBox="0 0 189.19 166.26" xmlns="http://www.w3.org/2000/svg" xmlns:xlink="http://www.w3.org/1999/xlink" id="OBJECTS" overflow="hidden"><defs><filter id="luminosity-invert-noclip" color-interpolation-filters="sRGB" x="267.51" y="279.02" width="189.19" height="176.49" filterUnits="userSpaceOnUse" primitiveUnits="userSpaceOnUse"><feColorMatrix result="invert" type="matrix" values="-1 0 0 0 1 0 -1 0 0 1 0 0 -1 0 1 0 0 0 1 0 "/><feFlood flood-color="#FFFFFF" result="bg"/><feBlend in="invert" in2="bg" mode="normal"/></filter><mask maskUnits="userSpaceOnUse" x="0" y="-5.25" width="189.19" height="176.49" id="mask"><g filter="url(#luminosity-invert-noclip)"><g transform="translate(-267.51 -284.27)"><path d="M362.11 455.5C322.42 455.45 290.255 423.29 290.2 383.6L290.2 303.79 362.11 279 434 303.79 434 383.6C433.945 423.283 401.793 455.439 362.11 455.5Z" fill="#FFFFFF"/></g></g></mask></defs><g mask="url(#mask)"><path d="M447.35 289.72C445.735 288.102 443.113 288.099 441.495 289.715 441.493 289.717 441.492 289.718 441.49 289.72L395.49 335.72C394.327 336.885 393.962 338.627 394.56 340.16L295.56 439.16C295.56 439.16 282.02 428.16 279.06 426.54 276.1 424.92 265.74 430.84 267.83 432.93 271.668 436.574 275.78 439.917 280.13 442.93 286.06 447.2 291.13 447.17 295.73 443.48 296.277 443.047 296.798 442.583 297.29 442.09L396.94 342.44C398.473 343.043 400.218 342.678 401.38 341.51L447.38 295.51C448.946 293.893 448.932 291.321 447.35 289.72Z" fill="#33560A" transform="translate(-267.51 -284.27)"/><path d="M276.86 289.72C278.475 288.102 281.097 288.099 282.715 289.715 282.717 289.717 282.718 289.718 282.72 289.72L328.72 335.72C329.883 336.885 330.248 338.627 329.65 340.16L428.65 439.16C428.65 439.16 442.18 428.16 445.14 426.54 448.1 424.92 458.46 430.84 456.38 432.93 452.536 436.57 448.421 439.913 444.07 442.93 438.14 447.2 433.07 447.17 428.47 443.48 427.923 443.047 427.402 442.583 426.91 442.09L327.27 342.44C325.734 343.042 323.987 342.677 322.82 341.51L276.82 295.51C275.257 293.89 275.275 291.318 276.86 289.72Z" fill="#33560A" transform="translate(-267.51 -284.27)"/></g><rect x="31.68" y="83.85" width="125.85" height="23.86" fill="#0D5500"/><path d="M362.11 288.5 425 310.18 425 383.6C425 418.357 396.827 446.534 362.07 446.54L362.07 446.54C327.309 446.54 299.13 418.361 299.13 383.6L299.13 310.18 362.07 288.5M362.07 284.27 360.76 284.72 297.87 306.4 295.17 307.33 295.17 383.6C294.718 420.567 324.32 450.901 361.287 451.353 398.254 451.805 428.588 422.203 429.04 385.236 429.047 384.691 429.047 384.145 429.04 383.6L429.04 307.33 426.34 306.4 363.41 284.72 362.11 284.27Z" fill="#33560A" transform="translate(-267.51 -284.27)"/><path d="M145.57 90.27 147.06 94.2 150.99 95.68 147.06 97.17 145.57 101.1 144.09 97.17 140.16 95.68 144.09 94.2 145.57 90.27Z" fill="#F9FBFC"/><path d="M43.64 90.27 45.12 94.2 49.05 95.68 45.12 97.17 43.64 101.1 42.15 97.17 38.22 95.68 42.15 94.2 43.64 90.27Z" fill="#F9FBFC"/><path d="M94.6 75.38 31.66 72.5 31.66 76.43 31.66 77.57 157.53 77.57 157.53 76.43 157.53 72.5 94.6 75.38Z" fill="#0D5500"/><path d="M94.6 67.38 94.72 67.41 94.72 67.35 157.53 53.91 157.53 48.84 94.6 65.19 31.66 48.84 31.66 53.91 94.47 67.35 94.47 67.41 94.6 67.38Z" fill="#0D5500"/><path d="M94.6 70.29 31.66 60.67 31.66 65.74 94.47 72.46 94.47 72.49 94.6 72.47 94.72 72.49 94.72 72.46 157.53 65.74 157.53 60.67 94.6 70.29Z" fill="#0D5500"/><circle cx="94.6" cy="95.78" r="38.05" fill="#F9FBFC"/><path d="M355.84 386.08C356.547 386.136 357.232 386.355 357.84 386.72 357.129 385.605 355.929 384.896 354.61 384.81 352.535 384.726 350.785 386.34 350.701 388.415 350.697 388.507 350.697 388.598 350.7 388.69 350.701 389.637 351.014 390.558 351.59 391.31 351.886 391.702 352.248 392.041 352.66 392.31 352.217 391.613 351.978 390.806 351.97 389.98 351.892 387.905 353.511 386.159 355.586 386.081 355.67 386.078 355.755 386.077 355.84 386.08ZM348.2 393.63C348.88 393.727 349.532 393.969 350.11 394.34 349.391 393.243 348.23 392.512 346.93 392.34 343.49 392.18 342.55 395.74 344.56 398.1 344.852 398.431 345.189 398.721 345.56 398.96 343.93 396.64 345 393.48 348.2 393.63ZM347.48 376.13C343.95 375.98 342.48 380.25 344.4 382.8 344.704 383.193 345.072 383.531 345.49 383.8 343.88 381.23 345.35 377.27 348.75 377.41 349.258 377.488 349.746 377.661 350.19 377.92 349.604 376.944 348.608 376.286 347.48 376.13ZM351.94 362.19C351.567 361.386 350.816 360.823 349.94 360.69 346.94 360.58 345.08 364.51 346.42 366.83 346.683 367.333 347.095 367.742 347.6 368 346.39 365.67 348.19 361.88 351.18 362 351.442 362.023 351.698 362.087 351.94 362.19ZM356.74 354.13C355.22 354.13 353.95 355.43 353.5 357.37 353.303 358.349 353.52 359.367 354.1 360.18 354.345 360.494 354.664 360.742 355.03 360.9 354.723 360.189 354.636 359.401 354.78 358.64 355.22 356.7 356.49 355.43 358.01 355.4 358.266 355.432 358.516 355.503 358.75 355.61 358.389 354.796 357.624 354.234 356.74 354.13ZM363.43 362.48C363.967 362.506 364.491 362.657 364.96 362.92 364.382 361.908 363.325 361.262 362.16 361.21 358.98 361.43 357.94 365.51 359.83 367.66 360.081 367.95 360.379 368.197 360.71 368.39 359.4 366.16 360.5 362.68 363.43 362.48ZM355.28 368.68C353.227 368.753 351.562 370.37 351.43 372.42 351.333 373.457 351.629 374.492 352.26 375.32 352.541 375.665 352.879 375.96 353.26 376.19 352.822 375.433 352.627 374.561 352.7 373.69 352.832 371.639 354.497 370.023 356.55 369.95 357.082 370 357.597 370.164 358.06 370.43 357.479 369.424 356.439 368.769 355.28 368.68ZM361.6 342.68C361.575 342.457 361.575 342.233 361.6 342.01L360.55 342.01C360.64 342.21 360.777 342.385 360.95 342.52 361.131 342.669 361.369 342.731 361.6 342.69ZM363.69 378.04C364.396 378.062 365.085 378.265 365.69 378.63 364.983 377.478 363.732 376.771 362.38 376.76 360.112 376.853 358.349 378.767 358.442 381.035 358.484 382.06 358.908 383.032 359.63 383.76 359.863 384.004 360.125 384.219 360.41 384.4 359.161 382.518 359.674 379.98 361.556 378.73 362.19 378.309 362.929 378.074 363.69 378.05ZM374 367.27 374.2 367.39C372.88 365.31 373.29 362.16 375.85 361.69 376.615 361.634 377.376 361.839 378.01 362.27 377.286 361.073 375.968 360.364 374.57 360.42 371.5 361 371.56 365.52 374 367.27ZM378.18 358.97C377.916 358.598 377.691 358.199 377.51 357.78 376.82 355.86 377.16 354.4 378.39 354.06 379.171 354.011 379.942 354.257 380.55 354.75 379.831 353.533 378.533 352.776 377.12 352.75 375.89 353.09 375.55 354.55 376.24 356.47 376.63 357.491 377.316 358.371 378.21 359ZM378.85 377.07C379.616 377 380.386 377.16 381.06 377.53 380.345 376.31 378.974 375.63 377.57 375.8 375.268 376.232 373.753 378.447 374.184 380.749 374.349 381.625 374.784 382.426 375.43 383.04 375.609 383.198 375.803 383.339 376.01 383.46 374.786 381.464 375.412 378.853 377.409 377.629 377.86 377.353 378.359 377.163 378.88 377.07ZM365 357.57C365.109 358.728 365.71 359.784 366.65 360.47L366.84 360.58C366.536 360.044 366.342 359.452 366.27 358.84 366.15 356.84 367.03 355.49 368.52 355.3 369.079 355.303 369.626 355.462 370.1 355.76 369.512 354.731 368.435 354.077 367.25 354.03 365.72 354.22 364.84 355.61 365 357.57ZM378.79 351C377.7 349.67 377.03 348.12 377.55 347.6 377.62 347.538 377.702 347.491 377.79 347.46 378.59 347.31 379.79 347.99 380.79 348.81L380.71 348.71C379.71 347.54 377.71 345.97 376.53 346.19 376.444 346.221 376.363 346.265 376.29 346.32 375.57 347 377 349.57 378.79 351ZM360.49 353.69C360.675 353.859 360.888 353.994 361.12 354.09 360.27 352.27 361.12 349.45 362.98 349.3 363.219 349.318 363.453 349.379 363.67 349.48 363.307 348.677 362.546 348.125 361.67 348.03 359.54 348.17 358.7 352.08 360.49 353.65ZM371.38 346.17C371.3 346.08 371.23 345.98 371.15 345.88 370.89 345.5 369.61 343.59 370.48 343.31 371.544 343.475 372.53 343.968 373.3 344.72 373.196 344.573 373.082 344.433 372.96 344.3L372.72 344.05C372.44 343.79 372.15 343.54 371.87 343.31 370.87 343.06 369.92 342.84 368.93 342.66 369.126 343.362 369.447 344.023 369.88 344.61 370.311 345.181 370.815 345.692 371.38 346.13ZM370.69 353.17C369.69 351.59 369.53 349.45 370.64 348.91 370.759 348.863 370.883 348.829 371.01 348.81 371.677 348.813 372.325 349.038 372.85 349.45 372.169 348.362 371.018 347.655 369.74 347.54 369.613 347.559 369.489 347.593 369.37 347.64 367.89 348.29 368.61 351.81 370.69 353.11ZM371.69 385.99C372.447 385.969 373.195 386.149 373.86 386.51 373.135 385.321 371.81 384.631 370.42 384.72 368.165 384.873 366.415 386.749 366.42 389.01 366.413 389.933 366.732 390.829 367.32 391.54 367.577 391.853 367.889 392.118 368.24 392.32 367.086 390.276 367.807 387.684 369.851 386.529 370.403 386.218 371.018 386.033 371.65 385.99ZM370.69 369.87C371.425 369.856 372.15 370.05 372.78 370.43 372.068 369.263 370.787 368.565 369.42 368.6 365.95 369.01 365.11 373.37 367.33 375.52 367.535 375.713 367.759 375.884 368 376.03 366.59 373.69 367.58 370.18 370.68 369.81ZM364.93 347.73 364.93 347.73C364.16 346.26 364.37 344.2 365.23 343.98L365.36 343.98C365.637 343.994 365.906 344.08 366.14 344.23 365.717 343.443 364.966 342.886 364.09 342.71L363.96 342.71C363.809 342.749 363.676 342.837 363.58 342.96 363.558 343.263 363.439 343.55 363.24 343.78 363 345 363.49 347 364.92 347.67ZM328 363.16 328 363.16 328 363.16ZM329.05 372.48C328.643 371.352 328.643 370.118 329.05 368.99 329.82 366.94 331.14 365.81 332.46 366.06 332.262 365.511 331.856 365.062 331.33 364.81 329.97 364.46 328.57 365.6 327.78 367.72 327.336 368.875 327.336 370.155 327.78 371.31 328.007 371.874 328.478 372.305 329.06 372.48ZM331.71 357.15 331.51 357.42C331.585 357.395 331.662 357.375 331.74 357.36ZM334 391.37C334.201 391.379 334.402 391.402 334.6 391.44 335.007 391.568 335.395 391.753 335.75 391.99 335.169 391.13 334.317 390.49 333.33 390.17 333.132 390.132 332.931 390.108 332.73 390.1 330.18 390.1 330.11 394.2 332.62 396.57 332.791 396.734 332.975 396.885 333.17 397.02 331.4 394.64 331.7 391.42 334 391.37ZM325.16 371.05 324.98 371.86C325.165 371.765 325.374 371.73 325.58 371.76 325.464 371.503 325.313 371.264 325.13 371.05ZM328.97 396.05C328.36 395.87 327.97 395.97 327.7 396.29 328.04 397 328.39 397.69 328.76 398.37 328.75 398.25 328.75 398.13 328.76 398.01L328.76 398.01C328.78 397.875 328.828 397.746 328.9 397.63 329.13 397.26 329.57 397.14 330.21 397.33 330.546 397.471 330.862 397.656 331.15 397.88 330.59 397.071 329.828 396.423 328.94 396ZM400.15 378.53C399.044 376.541 398.747 374.202 399.32 372 398.698 369.126 397.745 366.334 396.48 363.68L396.43 363.68C395.732 363.353 395.14 362.837 394.72 362.19L394.51 361.89 394.42 361.78C394.21 361.47 394.02 361.15 393.83 360.78L393.73 360.6C393.68 360.51 393.63 360.41 393.59 360.32L393.47 360.06C393.41 359.95 393.36 359.83 393.31 359.72 393.26 359.61 393.22 359.51 393.18 359.4 393.161 359.332 393.138 359.265 393.11 359.2L393 358.87C393 358.82 393 358.77 393 358.73 393 358.69 392.93 358.43 392.9 358.29 392.87 358.15 392.9 358.21 392.9 358.17 392.9 358.13 392.9 357.95 392.9 357.84L392.9 357.73C392.895 357.67 392.895 357.61 392.9 357.55 389.886 353.453 386.086 349.999 381.72 347.39 383.351 350.908 384.437 354.655 384.94 358.5 383.5 359.31 383.89 362.15 385.26 364.01 385.26 365.16 385.18 366.29 385.06 367.41 384.441 366.974 383.68 366.788 382.93 366.89 381.22 367.34 380.33 369.08 380.66 371.32 380.88 372.458 381.51 373.476 382.43 374.18L382.6 374.28C382.29 373.76 382.067 373.192 381.94 372.6 381.6 370.35 382.49 368.6 384.2 368.16 384.488 368.115 384.782 368.115 385.07 368.16L385.39 368.23 385.6 368.29 385.86 368.4 386.09 368.52C387.101 369.166 387.819 370.182 388.09 371.35 388.09 371.47 388.16 371.63 388.18 371.76 388.72 374.94 386.06 377.11 383.66 375.43 383.566 375.366 383.476 375.295 383.39 375.22 383.04 376.32 382.64 377.4 382.2 378.45 382.718 379.2 382.997 380.089 383 381 383.059 383.241 381.29 385.107 379.049 385.166 378.856 385.171 378.662 385.162 378.47 385.14 377.587 386.434 376.625 387.673 375.59 388.85 375.653 389.129 375.69 389.414 375.7 389.7 375.71 389.84 375.71 389.98 375.7 390.12L375.7 390.12C375.454 392.476 373.344 394.187 370.988 393.941 370.766 393.918 370.546 393.877 370.33 393.82 369.33 394.62 368.24 395.37 367.13 396.07 367.544 396.746 367.717 397.543 367.62 398.33 367.15 401.61 362.49 402.73 360.49 400.04 360.409 399.925 360.335 399.805 360.27 399.68 359.13 397.63 360.27 394.48 363.75 394.28 364.504 394.291 365.243 394.49 365.9 394.86 365.171 393.678 363.868 392.974 362.48 393.01 358.75 393.22 357.73 396.76 359.22 398.77 359.446 399.075 359.72 399.342 360.03 399.56 358.9 399.97 357.75 400.34 356.57 400.65 356.018 400.383 355.421 400.221 354.81 400.17 353.626 400.076 352.482 400.621 351.81 401.6 350.132 401.822 348.442 401.932 346.75 401.93 346.11 401.93 345.47 401.93 344.84 401.88 345.38 402.535 345.726 403.328 345.84 404.17L345.84 404.17C346.07 406.59 343.52 407.3 341.22 405.44 340.814 405.12 340.457 404.743 340.16 404.32L340.16 404.32 340.07 404.19 339.91 403.95 339.76 403.67 339.67 403.48C339.62 403.38 339.577 403.276 339.54 403.17 339.54 403.05 339.46 402.94 339.43 402.82 339.409 402.748 339.392 402.674 339.38 402.6 339.38 402.51 339.38 402.42 339.38 402.34 339.376 402.277 339.376 402.213 339.38 402.15 339.37 402.017 339.37 401.883 339.38 401.75 339.375 401.703 339.375 401.657 339.38 401.61 339.397 401.505 339.421 401.402 339.45 401.3 339.692 400.515 340.428 399.987 341.25 400.01 341.466 399.995 341.684 399.995 341.9 400.01 342.576 400.153 343.215 400.432 343.78 400.83 343.036 399.756 341.909 399.007 340.63 398.74 340.414 398.725 340.196 398.725 339.98 398.74 338.939 398.67 338.037 399.457 337.967 400.498 337.956 400.666 337.967 400.835 338 401 336.136 400.574 334.307 400.006 332.53 399.3 333.04 399.987 333.448 400.745 333.74 401.55L333.84 401.88C334.29 403.59 333.66 404.42 332.41 403.88 334.037 405.901 335.859 407.756 337.85 409.42 337.425 409.032 337.043 408.6 336.71 408.13L336.62 408.01 336.42 407.69 336.37 407.59C336.37 407.51 336.28 407.42 336.24 407.33L336.19 407.23 336.07 406.92C336.07 406.92 336.07 406.86 336.07 406.83 336.042 406.741 336.019 406.651 336 406.56 335.995 406.467 335.995 406.373 336 406.28L336 406.21C335.994 406.13 335.994 406.05 336 405.97 336.02 405.902 336.05 405.838 336.09 405.78L336.09 405.78C336.143 405.719 336.203 405.665 336.27 405.62L336.27 405.62 336.52 405.51C336.829 405.435 337.151 405.435 337.46 405.51 337.681 405.578 337.898 405.658 338.11 405.75L338.34 405.87 338.7 406.06C338.943 406.205 339.177 406.365 339.4 406.54 340.324 407.241 341.054 408.167 341.52 409.23 342.12 410.85 341.18 411.52 339.47 410.7 339.155 410.554 338.854 410.38 338.57 410.18 340.36 411.583 342.271 412.824 344.28 413.89L344.21 413.81C344.186 413.776 344.166 413.739 344.15 413.7 343.77 413.1 343.7 412.63 343.91 412.33 343.91 412.33 343.91 412.33 343.91 412.33 343.963 412.266 344.023 412.209 344.09 412.16L344.18 412.16C344.249 412.12 344.323 412.09 344.4 412.07 344.47 412.064 344.54 412.064 344.61 412.07L344.82 412.07C344.993 412.056 345.167 412.056 345.34 412.07 345.54 412.12 345.75 412.17 345.95 412.24L346.04 412.24C346.217 412.296 346.391 412.363 346.56 412.44L346.56 412.44C346.943 412.618 347.308 412.832 347.65 413.08 348.238 413.493 348.738 414.02 349.12 414.63L349.22 414.84C349.46 415.4 349.41 415.84 349.13 416.03 349.98 416.34 350.85 416.61 351.73 416.85 352.055 416.761 352.395 416.734 352.73 416.77 353.56 416.87 354.355 417.165 355.05 417.63 356.893 417.967 358.758 418.168 360.63 418.23 360.88 417.74 361.63 417.23 362.98 417.23L363.51 417.23 363.93 417.31C364.25 417.374 364.552 417.504 364.82 417.69L364.91 417.77C364.972 417.825 365.029 417.885 365.08 417.95L365.08 418.01 365.13 418.11C367.421 417.914 369.69 417.516 371.91 416.92 372.322 416.763 372.747 416.643 373.18 416.56 374.451 416.17 375.7 415.709 376.92 415.18 376.961 414.842 377.085 414.519 377.28 414.24 377.391 414.08 377.511 413.926 377.64 413.78L377.85 413.55 378.06 413.34 378.39 413.04 378.51 412.94C378.65 412.821 378.797 412.711 378.95 412.61L379 412.61C379.67 412.159 380.41 411.821 381.19 411.61L381.32 411.61C381.483 411.597 381.647 411.597 381.81 411.61L382.03 411.61 382.19 411.61 382.19 411.61 382.33 411.66 382.33 411.66C382.545 411.745 382.682 411.959 382.67 412.19 383.53 411.63 384.37 411.03 385.18 410.41 385.059 410.309 384.981 410.166 384.96 410.01 384.945 409.897 384.945 409.783 384.96 409.67 384.956 409.647 384.956 409.623 384.96 409.6 384.974 409.468 385.001 409.337 385.04 409.21L385.04 409.1C385.104 408.92 385.177 408.743 385.26 408.57L385.26 408.57C385.354 408.378 385.457 408.191 385.57 408.01L385.57 408.01C385.829 407.599 386.127 407.214 386.46 406.86L386.46 406.86C386.816 406.489 387.208 406.154 387.63 405.86L387.63 405.86C388.055 405.551 388.519 405.298 389.01 405.11L389.01 405.11 389.13 405.11 389.47 405.05C389.716 405.006 389.969 405.056 390.18 405.19L390.18 405.19C390.214 405.213 390.241 405.244 390.26 405.28L390.26 405.28C390.28 405.308 390.297 405.338 390.31 405.37 390.31 405.37 390.31 405.37 390.31 405.37L390.31 405.47C390.31 405.47 390.31 405.47 390.31 405.52L390.31 405.52C391.04 404.69 391.73 403.83 392.39 402.94 392.19 401.49 393.93 397.83 395.97 396.8L396.09 396.8C398.522 391.693 399.782 386.107 399.78 380.45 400.16 379.53 400.14 379 400.12 378.5ZM385.67 352C385.776 351.985 385.884 351.985 385.99 352L386.09 352C386.186 351.99 386.284 351.99 386.38 352L386.56 352.05C386.646 352.071 386.73 352.101 386.81 352.14L387.05 352.25 387.17 352.31C387.503 352.497 387.818 352.715 388.11 352.96L388.11 352.96C388.619 353.376 389.081 353.845 389.49 354.36 389.576 354.462 389.656 354.569 389.73 354.68 391.17 356.68 391.12 358.57 389.64 358.37 389.32 358.37 388.27 358.05 386.93 356.37L386.93 356.37 386.67 356.04 386.4 355.67C385.47 354.2 384.79 352.46 385.67 352ZM388.15 366.77C387.407 366.429 386.776 365.885 386.33 365.2 386.083 364.852 385.872 364.48 385.7 364.09L385.7 364.03C385.553 363.68 385.433 363.318 385.34 362.95L385.34 362.81C385.318 362.714 385.302 362.617 385.29 362.52L385.29 362.31C385.285 362.23 385.285 362.15 385.29 362.07 385.29 361.93 385.29 361.79 385.29 361.65 385.29 361.51 385.29 361.55 385.29 361.5L385.29 361.21 385.29 361.06C385.314 360.955 385.344 360.852 385.38 360.75 385.377 360.723 385.377 360.697 385.38 360.67 385.42 360.552 385.478 360.441 385.55 360.34L385.61 360.26C385.661 360.18 385.722 360.106 385.79 360.04L385.87 359.97C385.964 359.887 386.068 359.816 386.18 359.76L386.39 359.68 386.69 359.68 387.1 359.68 387.28 359.68 387.39 359.68 387.64 359.76 387.81 359.83 387.91 359.83 388.08 359.93 388.15 359.93 388.34 360.05C389.269 360.745 389.989 361.683 390.42 362.76L390.42 362.76C391.46 365.47 390.24 367.58 388.15 366.72ZM348.51 411.48C348.162 411.193 347.859 410.856 347.61 410.48L347.61 410.48C347.54 410.38 347.49 410.28 347.43 410.18 347.418 410.138 347.401 410.098 347.38 410.06 347.347 409.996 347.321 409.929 347.3 409.86 347.3 409.86 347.3 409.78 347.3 409.74 347.279 409.678 347.262 409.614 347.25 409.55L347.25 409.44C347.246 409.367 347.246 409.293 347.25 409.22 347.25 409.22 347.25 409.17 347.25 409.14 347.245 409.047 347.245 408.953 347.25 408.86L347.25 408.78C347.245 408.717 347.245 408.653 347.25 408.59L347.25 408.5C347.267 408.444 347.291 408.391 347.32 408.34L347.32 408.25C347.351 408.193 347.388 408.139 347.43 408.09L347.43 408.02C347.492 407.952 347.559 407.888 347.63 407.83L347.63 407.83 347.82 407.7 347.91 407.65 348.1 407.56 348.21 407.56 348.44 407.49 348.55 407.49C348.668 407.459 348.788 407.439 348.91 407.43 349.11 407.43 349.37 407.43 349.57 407.43L350.13 407.54 350.26 407.54 350.7 407.67 350.77 407.67C351.099 407.792 351.415 407.95 351.71 408.14L351.71 408.14C352.626 408.687 353.255 409.608 353.43 410.66 353.71 412.78 350.75 413.27 348.51 411.43ZM353.45 406.36C353.323 406.21 353.209 406.05 353.11 405.88L353.11 405.88C353.034 405.762 352.967 405.638 352.91 405.51L352.91 405.51C352.823 405.307 352.756 405.096 352.71 404.88L352.71 404.88C352.71 404.79 352.71 404.71 352.71 404.64 352.61 402.77 353.94 401.57 356.11 401.56 356.345 401.581 356.579 401.618 356.81 401.67L357.02 401.73 357.46 401.86 357.68 401.95C357.862 402.025 358.039 402.111 358.21 402.21L358.21 402.21C359.213 402.774 359.866 403.803 359.95 404.95 359.95 405.05 359.95 405.18 359.95 405.27 359.62 408 355.53 408.72 353.45 406.31ZM360.34 415.46C360.2 417.35 356.75 417.57 355.14 415.79 354.98 415.619 354.848 415.423 354.75 415.21L354.75 415.21C354.75 415.15 354.7 415.08 354.67 415.01 354.37 413.81 355.35 413.01 357.1 413.01 357.295 413.021 357.489 413.047 357.68 413.09L357.9 413.09 358.2 413.17 358.46 413.25 358.66 413.34 358.93 413.45C359.662 413.767 360.19 414.426 360.34 415.21ZM360.34 411.65 360.23 411.43C360.191 411.339 360.157 411.245 360.13 411.15L360.13 411.15 360.07 410.87 360.07 410.87C360.065 410.783 360.065 410.697 360.07 410.61L360.07 410.61C360.065 410.527 360.065 410.443 360.07 410.36L360.07 410.31C360.081 410.232 360.098 410.155 360.12 410.08 360.114 410.057 360.114 410.033 360.12 410.01 360.142 409.938 360.169 409.868 360.2 409.8 360.195 409.774 360.195 409.746 360.2 409.72 360.227 409.654 360.261 409.59 360.3 409.53L360.36 409.43 360.48 409.27 360.57 409.17 360.7 409.02 360.82 408.92 360.97 408.8 361.11 408.7 361.28 408.59 361.45 408.5 361.62 408.41 361.84 408.33 362.01 408.26 362.26 408.19 362.44 408.14 362.75 408.08 362.91 408.08 363.41 408.08C363.587 408.069 363.763 408.069 363.94 408.08L364.04 408.08 364.42 408.15 364.49 408.15 364.87 408.25 364.87 408.25 365.24 408.4C366.251 408.799 366.831 409.864 366.62 410.93 366.12 413.34 361.73 413.88 360.38 411.6ZM371.85 414.84C371.85 414.9 371.78 414.99 371.74 415.05L371.74 415.05C371.689 415.137 371.632 415.221 371.57 415.3 371.488 415.41 371.398 415.514 371.3 415.61L371.3 415.61 371 415.88 371 415.88 370.68 416.11 370.63 416.11 370.3 416.3 370.24 416.3 369.9 416.45 369.82 416.45 369.48 416.57 369.4 416.57 369.05 416.66 369 416.66 368.63 416.72 368.63 416.72C367.45 416.86 366.36 416.53 366.13 415.64 366.125 415.56 366.125 415.48 366.13 415.4 366.119 415.29 366.119 415.18 366.13 415.07 366.44 413.84 367.81 412.94 369.61 412.76 369.806 412.745 370.004 412.745 370.2 412.76 370.372 412.77 370.543 412.797 370.71 412.84 371.75 413.19 372.22 413.86 371.89 414.79ZM367.59 406.29C367.553 406.222 367.519 406.152 367.49 406.08 367.44 405.974 367.399 405.864 367.37 405.75L367.37 405.75C367.331 405.64 367.308 405.526 367.3 405.41L367.3 405.41C367.3 405.3 367.3 405.18 367.3 405.07L367.3 405.07C367.3 404.96 367.3 404.85 367.3 404.74L367.3 404.74C367.309 404.635 367.329 404.531 367.36 404.43 367.355 404.404 367.355 404.376 367.36 404.35 367.381 404.251 367.411 404.154 367.45 404.06 367.452 404.027 367.452 403.993 367.45 403.96L367.57 403.7C367.59 403.658 367.613 403.618 367.64 403.58 367.64 403.5 367.73 403.43 367.78 403.35L367.87 403.21 368.03 403.01 368.17 402.86 368.34 402.69 368.51 402.54 368.69 402.39 368.9 402.25 369.1 402.12 369.35 401.99 369.55 401.89 369.85 401.77 370.05 401.7 370.42 401.6 370.61 401.6C370.808 401.559 371.008 401.529 371.21 401.51 371.39 401.5 371.57 401.5 371.75 401.51L371.85 401.51C371.99 401.51 372.13 401.51 372.26 401.57L372.31 401.57 372.71 401.67 372.71 401.67C374.034 402.076 374.808 403.447 374.47 404.79L374.47 404.79C373.77 407.66 369.08 408.73 367.63 406.24ZM379.73 409.65C379.569 409.957 379.371 410.242 379.14 410.5 378.847 410.845 378.511 411.151 378.14 411.41L378.07 411.41C377.897 411.523 377.727 411.623 377.56 411.71L377.47 411.71C377.279 411.809 377.082 411.896 376.88 411.97 375.33 412.53 373.76 412.33 373.44 411.07 373.435 411.02 373.435 410.97 373.44 410.92L373.44 410.92C373.43 410.834 373.43 410.746 373.44 410.66L373.44 410.66C373.435 410.57 373.435 410.48 373.44 410.39L373.44 410.39C373.45 410.298 373.471 410.208 373.5 410.12L373.5 410.12 373.59 409.86 373.59 409.86C373.622 409.775 373.659 409.691 373.7 409.61L373.7 409.55C373.741 409.47 373.788 409.393 373.84 409.32 373.853 409.288 373.87 409.258 373.89 409.23L374.04 409.02 374.12 408.92C374.168 408.852 374.221 408.789 374.28 408.73L374.39 408.61 374.56 408.45C374.602 408.402 374.649 408.358 374.7 408.32L374.87 408.18 375.05 408.05C375.106 408.001 375.166 407.958 375.23 407.92L375.43 407.79 375.62 407.69C375.697 407.641 375.777 407.597 375.86 407.56L376.04 407.48 376.32 407.36 376.51 407.29 376.84 407.19 377.01 407.19C377.184 407.143 377.361 407.106 377.54 407.08 377.75 407.08 377.95 407.08 378.13 407.08L378.26 407.08C378.421 407.088 378.582 407.108 378.74 407.14 380.21 407.36 380.29 408.61 379.77 409.6ZM375.87 399.48C375.788 399.367 375.718 399.247 375.66 399.12L375.66 399.12C375.641 399.058 375.618 398.998 375.59 398.94 375.59 398.87 375.54 398.8 375.52 398.73 375.5 398.66 375.52 398.59 375.47 398.52 375.42 398.45 375.47 398.38 375.47 398.31 375.47 398.24 375.47 398.17 375.47 398.1 375.47 398.03 375.47 397.95 375.47 397.87 375.47 397.79 375.47 397.73 375.47 397.65 375.47 397.57 375.47 397.5 375.47 397.42 375.465 397.347 375.465 397.273 375.47 397.2 375.465 397.12 375.465 397.04 375.47 396.96L375.53 396.74C375.549 396.659 375.572 396.579 375.6 396.5 375.622 396.428 375.649 396.358 375.68 396.29 375.709 396.208 375.742 396.128 375.78 396.05 375.813 395.978 375.849 395.908 375.89 395.84 375.927 395.76 375.971 395.683 376.02 395.61 376.057 395.54 376.101 395.473 376.15 395.41 376.198 395.329 376.251 395.253 376.31 395.18L376.46 394.99 376.66 394.78C376.66 394.72 376.77 394.67 376.83 394.61L377.06 394.41 377.24 394.26 377.51 394.08 377.72 393.95 378.03 393.79 378.24 393.69 378.62 393.55 378.81 393.48 379.44 393.34C379.62 393.325 379.8 393.325 379.98 393.34L380.07 393.34 380.48 393.34 380.48 393.34 380.89 393.44 380.89 393.44C381.021 393.48 381.148 393.53 381.27 393.59 382.491 394.219 383.114 395.61 382.77 396.94 382.16 400.29 377.6 401.93 375.91 399.43ZM388 402.22C388 402.32 387.92 402.45 387.88 402.55 387.676 403.049 387.403 403.516 387.07 403.94L387.07 403.94C386.819 404.254 386.542 404.545 386.24 404.81L386.24 404.81C386.104 404.932 385.96 405.045 385.81 405.15L385.81 405.15C385.66 405.26 385.5 405.36 385.35 405.45 383.96 406.23 382.5 406.24 381.93 405.08 381.87 404.952 381.823 404.818 381.79 404.68 381.729 404.349 381.729 404.011 381.79 403.68L381.79 403.68C381.79 403.6 381.79 403.51 381.84 403.44 382.392 401.521 383.91 400.033 385.84 399.52 386.023 399.506 386.207 399.506 386.39 399.52L386.85 399.52C387.9 399.74 388.36 400.71 388 402.22ZM384.16 391.22C384.034 391.058 383.923 390.883 383.83 390.7 383.62 390.287 383.485 389.84 383.43 389.38L383.43 389.38C383.425 389.31 383.425 389.24 383.43 389.17L383.43 389.17C383.43 389.11 383.43 389.06 383.43 389.01L383.43 388.84C383.374 386.69 384.755 384.766 386.81 384.13 386.946 384.12 387.083 384.12 387.22 384.13L387.61 384.13 387.73 384.13 387.99 384.18 388.09 384.18 388.42 384.3C389.42 384.75 390.07 385.87 390.13 387.5 390.13 387.62 390.13 387.79 390.13 387.92 389.74 391.49 386 393.57 384.13 391.2ZM394.88 394.08C394.732 394.703 394.496 395.303 394.18 395.86 393.906 396.33 393.569 396.76 393.18 397.14L393.18 397.14C393.073 397.253 392.963 397.353 392.85 397.44 391.73 398.37 390.47 398.52 389.85 397.39 389.765 397.231 389.698 397.063 389.65 396.89 389.429 395.885 389.527 394.836 389.93 393.89 389.933 393.853 389.933 393.817 389.93 393.78L390.07 393.46 390.15 393.29 390.29 393.02 390.41 392.82 390.56 392.59C390.601 392.513 390.648 392.439 390.7 392.37 390.748 392.299 390.801 392.232 390.86 392.17 390.903 392.111 390.95 392.054 391 392L391.16 391.83 391.37 391.62 391.53 391.47 391.77 391.28 391.93 391.16C392.02 391.09 392.12 391.04 392.21 390.98L392.35 390.9C392.497 390.819 392.651 390.752 392.81 390.7L393.22 390.64 393.22 390.64C393.336 390.63 393.454 390.63 393.57 390.64 395 390.83 395.2 392.62 394.85 394.06ZM390.98 382.18C390.657 381.898 390.389 381.559 390.19 381.18 389.813 380.479 389.595 379.704 389.55 378.91L389.55 378.86C389.55 378.72 389.55 378.58 389.55 378.44L389.55 378.31C389.55 378.19 389.55 378.06 389.55 377.94 389.555 377.88 389.555 377.82 389.55 377.76 389.55 377.65 389.55 377.54 389.6 377.43 389.65 377.32 389.6 377.28 389.6 377.21 389.617 377.112 389.641 377.015 389.67 376.92 389.67 376.76 389.77 376.6 389.83 376.45 389.853 376.391 389.879 376.335 389.91 376.28 389.951 376.181 389.997 376.084 390.05 375.99L390.15 375.82 390.33 375.56 390.45 375.41 390.66 375.18 390.8 375.06C390.88 374.985 390.967 374.918 391.06 374.86L391.19 374.77C391.333 374.683 391.483 374.609 391.64 374.55 391.764 374.519 391.892 374.503 392.02 374.5L392.41 374.5 392.72 374.56 392.72 374.56C392.826 374.594 392.929 374.634 393.03 374.68 394.2 375.439 394.922 376.726 394.96 378.12 395.29 381.43 392.94 383.76 391 382.16ZM395.07 372.73C394.604 372.422 394.214 372.012 393.93 371.53 393.692 371.15 393.492 370.748 393.33 370.33L393.33 370.33 393.19 369.94 393.19 369.83 393.08 369.45C393.084 369.413 393.084 369.377 393.08 369.34 393.03 369.11 392.98 368.88 392.95 368.65 392.945 368.6 392.945 368.55 392.95 368.5 392.945 368.41 392.945 368.32 392.95 368.23 392.945 368.143 392.945 368.057 392.95 367.97L392.95 367.74C392.95 367.64 392.95 367.55 392.95 367.45 392.95 367.35 392.95 367.32 392.95 367.25 392.95 367.18 392.95 367.01 393 366.89 393.05 366.77 393 366.83 393 366.8 393.031 366.66 393.075 366.523 393.13 366.39 393.142 366.348 393.159 366.308 393.18 366.27 393.217 366.18 393.261 366.094 393.31 366.01L393.38 365.89 393.56 365.68 393.64 365.59C393.738 365.502 393.845 365.425 393.96 365.36 394.061 365.33 394.165 365.31 394.27 365.3L394.64 365.3 394.9 365.36 394.9 365.36 395.18 365.49C396.231 366.24 396.982 367.338 397.3 368.59L397.3 368.59C398.08 371.45 396.83 373.82 395 372.71ZM399.87 384.43C399.87 384.64 399.87 384.84 399.87 385.04L399.87 385.2C399.87 385.35 399.87 385.49 399.8 385.63 399.805 385.68 399.805 385.73 399.8 385.78 399.8 385.92 399.74 386.06 399.7 386.19L399.7 386.31C399.7 386.45 399.61 386.59 399.56 386.72L399.56 386.8C399.5 386.94 399.45 387.09 399.38 387.22L399.38 387.22C399.32 387.362 399.25 387.499 399.17 387.63L399.17 387.63C399.024 387.886 398.853 388.127 398.66 388.35L398.66 388.35C397.99 389.09 397.21 389.29 396.59 388.6 396.385 388.348 396.229 388.06 396.13 387.75 395.963 387.242 395.865 386.714 395.84 386.18L395.84 386.11C395.84 386.06 395.84 386.02 395.84 385.97L395.84 385.8C395.9 383.4 396.72 381.49 397.97 380.8 398.061 380.77 398.155 380.75 398.25 380.74L398.25 380.74C398.333 380.73 398.417 380.73 398.5 380.74 399.088 380.849 399.561 381.284 399.72 381.86L399.72 381.86C399.72 381.98 399.81 382.11 399.85 382.26L399.85 382.31C399.85 382.46 399.93 382.61 399.96 382.78L399.96 382.78C399.99 382.942 400.01 383.106 400.02 383.27 400.02 383.27 400.02 383.35 400.02 383.39L400.02 383.94C400.02 384.06 400.02 384.23 400.02 384.36ZM329 381.74 329.29 381.91C328.933 381.279 328.388 380.775 327.73 380.47 326.24 380.07 325.23 381.3 325.15 383.62 325.137 385.067 325.613 386.477 326.5 387.62 326.752 387.941 327.064 388.21 327.42 388.41 326.765 387.342 326.418 386.113 326.42 384.86 326.5 382.57 327.51 381.34 329 381.74ZM331.5 380.68C331.795 381.172 332.216 381.576 332.72 381.85 331.13 379.16 332.58 374.78 335.63 375.29 335.824 375.355 336.012 375.439 336.19 375.54 335.8 374.815 335.144 374.27 334.36 374.02 331.27 373.5 329.82 378 331.5 380.68ZM338.68 373.98C338.96 374.408 339.351 374.754 339.81 374.98 338.41 372.46 340.19 368.33 343.38 368.64 343.627 368.696 343.865 368.784 344.09 368.9 343.696 368.108 342.957 367.543 342.09 367.37 338.81 367.07 337 371.5 338.68 374ZM343.12 356.05C342.676 356.923 342.59 357.935 342.88 358.87 343.083 359.398 343.531 359.794 344.08 359.93 343.886 359.05 343.996 358.13 344.39 357.32 345.39 355.45 346.86 354.32 348.24 354.44 348.091 353.811 347.599 353.319 346.97 353.17 345.58 353.05 344.07 354.18 343.12 356.05ZM350.86 347.11C351.469 345.712 352.524 344.555 353.86 343.82 354 343.504 354.085 343.165 354.11 342.82 353.11 343.03 352.11 343.29 351.11 343.58 350.11 344.51 349.32 345.71 349.47 346.53 349.62 347.13 350.16 347.33 350.86 347.11ZM353.29 347.72C352.919 348.049 352.478 348.288 352 348.42 350.7 349.53 349.81 351.58 350.42 352.87 350.624 353.34 351.054 353.672 351.56 353.75 351.12 351.88 353.1 348.98 354.99 348.93 354.91 348.295 354.436 347.781 353.81 347.65 353.635 347.654 353.46 347.677 353.29 347.72ZM335.29 357.72C335.336 356.73 335.689 355.78 336.3 355 337.079 353.824 338.247 352.96 339.6 352.56 339.703 352.053 339.464 351.538 339.01 351.29 337.94 351.03 336.34 352.01 335.01 353.73 334.321 354.574 333.965 355.641 334.01 356.73 334.068 357.351 334.618 357.809 335.239 357.751 335.243 357.751 335.246 357.75 335.25 357.75ZM356.71 342.37 356.16 342.45C356.331 342.478 356.507 342.461 356.67 342.4ZM343.25 352.31C343.4 350.67 345.63 348.31 347.38 347.85 347.5 347.26 347.44 346.76 346.99 346.55 346.16 346.98 345.56 347.07 345.27 346.92 343.54 347.85 341.73 350.11 341.99 351.5 342.064 352.047 342.567 352.431 343.115 352.358 343.147 352.353 343.178 352.347 343.21 352.34ZM341.1 384.6C341.559 384.706 341.998 384.885 342.4 385.13 341.815 384.214 340.891 383.567 339.83 383.33 337.83 383.13 336.47 384.5 336.37 386.82 336.381 388.047 336.828 389.231 337.63 390.16 337.884 390.445 338.173 390.697 338.49 390.91 337.947 390.072 337.653 389.098 337.64 388.1 337.7 385.8 339.06 384.43 341.06 384.63ZM335 365C335.199 365.6 335.67 366.071 336.27 366.27 335.38 363.94 337.81 359.85 340.45 360.27 340.263 359.666 339.793 359.191 339.19 359 336.51 358.53 334.07 362.64 335 365ZM356.74 347.41C356.965 347.742 357.339 347.944 357.74 347.95 357.676 347.421 357.73 346.885 357.9 346.38 358.19 345.341 358.921 344.482 359.9 344.03 359.839 343.526 359.557 343.075 359.13 342.8 358.47 343.65 357.77 343.92 357.39 343.8 357.094 344.22 356.855 344.677 356.68 345.16 356.377 345.87 356.384 346.675 356.7 347.38Z" fill="#33560A" transform="translate(-267.51 -284.27)"/><path d="M362.11 419C340.571 419 323.11 401.539 323.11 380 323.11 358.461 340.571 341 362.11 341 383.649 341 401.11 358.461 401.11 380 401.11 401.539 383.649 419 362.11 419ZM362.11 342.9C341.598 342.9 324.97 359.528 324.97 380.04 324.97 400.552 341.598 417.18 362.11 417.18 382.622 417.18 399.25 400.552 399.25 380.04 399.217 359.545 382.605 342.942 362.11 342.92Z" fill="#0D5500" transform="translate(-267.51 -284.27)"/><text x="-267.51" y="-284.27"></text><text x="-267.51" y="-284.27"></text><text x="-267.51" y="-284.27"></text></svg>