<svg viewBox="0 0 512 512" xmlns="http://www.w3.org/2000/svg" xmlns:xlink="http://www.w3.org/1999/xlink" overflow="hidden"><path d="M278.8 300.5C282.2 295.8 284.2 290.1 284.2 283.9 284.2 268.3 271.6 255.7 256 255.7 240.4 255.7 227.8 268.3 227.8 283.9 227.8 290.1 229.8 295.8 233.2 300.5L233.2 300.5C233.2 300.5 262 350.9 233.2 412.1L256 412.1 278.8 412.1C250 350.9 278.8 300.5 278.8 300.5L278.8 300.5Z" fill="#FABD3B"/><path d="M349.8 14 255.6 14 255.6 14 161.4 14C161.4 14 136.8 282.6 255.6 282.6L255.6 282.6 255.6 282.6 255.6 282.6 255.6 282.6C378.4 282.6 349.8 14 349.8 14Z" fill="#FFD759"/><path d="M307 420.2C307 424.6 303.4 428.2 299 428.2L213.1 428.2C208.7 428.2 205.1 424.6 205.1 420.2L205.1 420.2C205.1 415.8 208.7 412.2 213.1 412.2L299 412.2C303.4 412.1 307 415.7 307 420.2L307 420.2Z" fill="#FAB72F"/><rect x="196.4" y="428.2" width="119.3" height="53" fill="#FFD759"/><path d="M315.6 481.2 256 481.2 196.4 481.2 183.6 506 256 506 328.4 506Z" fill="#FFD759"/><path d="M358.2 14C358.2 18.4 354.6 22 350.2 22L161.8 22C157.4 22 153.8 18.4 153.8 14L153.8 14C153.8 9.6 157.4 6 161.8 6L350.2 6C354.6 6 358.2 9.6 358.2 14L358.2 14Z" fill="#FAB72F"/><rect x="205" y="436.7" width="102" height="37.9" fill="#FAB72F"/><circle cx="256" cy="119" r="63.5" fill="#FAB72F"/><path d="M250.1 158.9 250.1 106.5C250.1 103.8 250.2 101.2 250.7 98.4L233.3 102.9 231.4 91.9 250.1 84.5 266.5 84.5 266.5 158.9 250.1 158.9ZM176.1 195.7C133.6 169.7 89.7 105.4 87.5 66.1 86.9 55.9 89.7 46.9 94.9 42.8 103.3 36.3 110.9 36.2 119 37.8 132.3 40.5 143.6 49.4 151.5 58.1 151.2 58.1 151 58 150.7 58 145.5 58 141.3 62.2 141.3 67.4 141.3 72.6 145.5 76.8 150.7 76.8 155.3 76.8 159.2 73.4 159.9 69 161.3 71.2 162.4 73.2 163.1 74.7L164.1 68.3C163.5 66.8 147.9 32.6 121.9 26.1 113.5 24 105.3 24.1 97.1 27.5 96.6 19.9 90.3 14 82.7 14 74.7 14 68.2 20.5 68.2 28.5 68.2 35.5 73.2 41.4 79.8 42.8 76.8 48.6 74.8 56.5 75.4 66.7 77.6 106 113.8 158.5 161 190.7 155.3 191.3 150.8 196.2 150.8 202.1 150.8 208.4 155.9 213.5 162.2 213.5 168.5 213.5 173.6 208.4 173.6 202.1 173.6 200.8 173.4 199.5 172.9 198.3 173.9 198.9 175 199.5 176 200.1L176 195.7ZM443.8 28.5C443.8 20.5 437.3 14 429.3 14 421.6 14 415.3 20 414.8 27.6 406.4 23.9 398 23.8 389.4 25.9 363.4 32.4 347.8 66.7 347.2 68.1L348.2 74.5C348.9 73 350 71.1 351.4 68.8 352.1 73.2 356 76.6 360.6 76.6 365.8 76.6 370 72.4 370 67.2 370 62 365.8 57.8 360.6 57.8 360.3 57.8 360.1 57.9 359.8 57.9 367.7 49.2 379 40.4 392.3 37.6 400.4 35.9 408 36 416.4 42.6 421.7 46.7 424.4 55.7 423.8 65.9 421.6 105.3 377.8 169.5 335.2 195.5L335.2 199.9C336.2 199.3 337.3 198.7 338.3 198.1 337.9 199.3 337.6 200.6 337.6 201.9 337.6 208.2 342.7 213.3 349 213.3 355.3 213.3 360.4 208.2 360.4 201.9 360.4 196 355.9 191.2 350.2 190.5 397.4 158.3 433.7 105.9 435.8 66.5 436.4 56.4 434.3 48.5 431.4 42.7 438.5 41.8 443.8 35.8 443.8 28.5Z" fill="#FFD759"/></svg>