<svg viewBox="0 0 47.5 47.5" xmlns="http://www.w3.org/2000/svg" xmlns:xlink="http://www.w3.org/1999/xlink" overflow="hidden"><defs><clipPath id="a"><path d="M0 38 38 38 38 0 0 0 0 38Z"/></clipPath><clipPath id="b"><path d="M1.193 5C1.193 3 3 1 5 1L33 1C35 1 36.731 3 36.731 5 36.731 9.355 32.097 16 19 16 5.508 16 1.193 9.541 1.193 5"/></clipPath><clipPath id="c"><path d="M0 38 38 38 38 0 0 0 0 38Z"/></clipPath></defs><g clip-path="url(#a)" transform="matrix(1.25 0 0 -1.25 0 47.5)"><path d="M5 1 33 1C35 1 36.73 3 36.73 5 36.73 9.355 32.097 16 19 16 5.508 16 1.193 9.541 1.193 5 1.193 3 3 1 5 1" fill="#77B255"/></g><g clip-path="url(#b)" transform="matrix(1.25 0 0 -1.25 0 47.5)"><path d="M12.291 7.5C13.416 11.25 22.041 15.166 26.624 15.125 31.624 15.08 29.249 14.333 28.249 14.333 27.249 14.333 16.458 11.708 14.249 6.833 13.249 6.833 12.291 7.5 12.291 7.5" fill="#5C913B"/></g><g clip-path="url(#c)" transform="matrix(1.25 0 0 -1.25 0 47.5)"><path d="M20 6.5C20 5.119 17.09 4 13.5 4 9.91 4 7 5.119 7 6.5 7 7.881 9.91 9 13.5 9 17.09 9 20 7.881 20 6.5" fill="#292F33"/><path d="M11 33 11 7C11 6.447 11.448 6.156 12 6.156 12.552 6.156 13 6.447 13 7L13 33 11 33Z" fill="#FFAC33"/><path d="M11 34C11 36.2 12.695 37.395 14.767 36.655L24.233 33.274C26.305 32.534 26.305 31.323 24.233 30.583L14.767 27.202C12.695 26.462 11 27.657 11 29.857L11 34Z" fill="#DD2E44"/></g></svg>