<svg viewBox="0 0 32 32" xmlns="http://www.w3.org/2000/svg" xmlns:xlink="http://www.w3.org/1999/xlink" overflow="hidden"><path d="M24.75 11.554 5.75 11.554C5.19772 11.554 4.75 12.0017 4.75 12.554L4.75 15.554C4.75 16.1063 5.19772 16.554 5.75 16.554L24.75 16.554C25.3023 16.554 25.75 16.1063 25.75 15.554L25.75 12.554C25.75 12.0017 25.3023 11.554 24.75 11.554Z" fill="#FFCC5C"/><path d="M24.75 11.554 22.75 11.554C23.3023 11.554 23.75 12.0017 23.75 12.554L23.75 15.554C23.75 16.1063 23.3023 16.554 22.75 16.554L24.75 16.554C25.3023 16.554 25.75 16.1063 25.75 15.554L25.75 12.554C25.75 12.0017 25.3023 11.554 24.75 11.554Z" fill="#F7B546"/><path d="M16.25 16.554 23.75 16.554 23.75 27.554C23.75 28.1063 23.3023 28.554 22.75 28.554L7.75 28.554C7.19772 28.554 6.75 28.1063 6.75 27.554L6.75 16.554 14.25 16.554" fill="#FFCC5C"/><path d="M21.75 16.554 6.75 16.554 6.75 18.554 17.75 18.554C19.9591 18.554 21.75 20.3449 21.75 22.554L21.75 28.554 22.75 28.554C23.3023 28.554 23.75 28.1063 23.75 27.554L23.75 16.554 21.75 16.554Z" fill="#F7B546"/><path d="M12.75 6.554C11.3693 6.554 10.25 7.67329 10.25 9.054 10.25 10.4347 11.3693 11.554 12.75 11.554L15.25 11.554 15.25 9.054C15.25 7.67329 14.1307 6.554 12.75 6.554ZM14.25 10.554 12.75 10.554C11.9216 10.554 11.25 9.88243 11.25 9.054 11.25 8.22557 11.9216 7.554 12.75 7.554 13.5784 7.554 14.25 8.22557 14.25 9.054L14.25 10.554ZM17.75 6.554C16.3693 6.554 15.25 7.67329 15.25 9.054L15.25 11.554 17.75 11.554C19.1307 11.554 20.25 10.4347 20.25 9.054 20.25 7.67329 19.1307 6.554 17.75 6.554ZM17.75 10.554 16.25 10.554 16.25 9.054C16.25 8.22557 16.9216 7.554 17.75 7.554 18.5784 7.554 19.25 8.22557 19.25 9.054 19.25 9.88243 18.5784 10.554 17.75 10.554Z" fill="#F04C4D"/><path d="M17.75 10.554 18.25 10.554C19.0784 10.554 19.75 9.88243 19.75 9.054 19.75 8.22557 19.0784 7.554 18.25 7.554 18.164 7.554 18.082 7.565 18 7.579 18.8163 7.71012 19.3718 8.47817 19.2406 9.29447 19.1233 10.025 18.4899 10.5602 17.75 10.554ZM12.75 7.554 12.25 7.554C11.4216 7.554 10.75 8.22557 10.75 9.054 10.75 9.88243 11.4216 10.554 12.25 10.554 12.336 10.554 12.418 10.543 12.5 10.529 11.6837 10.3979 11.1282 9.62983 11.2594 8.81353 11.3767 8.083 12.0101 7.54778 12.75 7.554Z" fill="#E13340"/><path d="M14.25 11.554 16.25 11.554 16.25 28.554 14.25 28.554Z" fill="#F04C4D"/><path d="M22.65 5.454 24.25 5.054 22.65 4.654 22.25 3.054 21.85 4.654 20.25 5.054 21.85 5.454 22.25 7.054ZM24.45 8.254 25.25 8.054 24.45 7.854 24.25 7.054 24.05 7.854 23.25 8.054 24.05 8.254 24.25 9.054ZM25.45 4.254 26.25 4.054 25.45 3.854 25.25 3.054 25.05 3.854 24.25 4.054 25.05 4.254 25.25 5.054Z" fill="#FFCC5C"/></svg>