<svg viewBox="0 0 220.17 34.82" xmlns="http://www.w3.org/2000/svg" xmlns:xlink="http://www.w3.org/1999/xlink" id="Режим_изоляции" overflow="hidden"><defs></defs><path d="M295.22 68.14 515.38 68.14C506.362 63.7787 496.478 61.5024 486.46 61.48 469.89 61.48 465.69 65.99 465.69 65.99 465.69 65.99 463.35 37.71 439.85 34.88 417.93 32.24 405.3 55.46 405.3 55.46 405.3 55.46 404.05 46.52 390.1 46.52 376.15 46.52 379.69 58.41 379.69 58.41 379.69 58.41 377 33.31 346.5 33.31 316 33.31 318.5 60.71 318.5 60.71 318.5 60.71 303.56 59.79 295.22 68.14Z" fill="#FFFFFF" transform="translate(-295.22 -33.31)"/></svg>